<?xml version="1.0" encoding="UTF-8" standalone="no"?>
<!-- Created with Inkscape (http://www.inkscape.org/) -->

<svg
   xmlns:dc="http://purl.org/dc/elements/1.1/"
   xmlns:cc="http://creativecommons.org/ns#"
   xmlns:rdf="http://www.w3.org/1999/02/22-rdf-syntax-ns#"
   xmlns:svg="http://www.w3.org/2000/svg"
   xmlns="http://www.w3.org/2000/svg"
   xmlns:sodipodi="http://sodipodi.sourceforge.net/DTD/sodipodi-0.dtd"
   xmlns:inkscape="http://www.inkscape.org/namespaces/inkscape"
   width="705.07635"
   height="364.65494"
   id="svg2"
   version="1.1"
   inkscape:version="0.48.4 r9939"
   sodipodi:docname="Git_Github_Workflow.svg">
  <defs
     id="defs4" />
  <sodipodi:namedview
     id="base"
     pagecolor="#ffffff"
     bordercolor="#666666"
     borderopacity="1.0"
     inkscape:pageopacity="0.0"
     inkscape:pageshadow="2"
     inkscape:zoom="1.4342326"
     inkscape:cx="352.53818"
     inkscape:cy="182.32747"
     inkscape:document-units="px"
     inkscape:current-layer="layer1"
     showgrid="false"
     inkscape:snap-grids="false"
     inkscape:snap-midpoints="true"
     fit-margin-top="0"
     fit-margin-left="0"
     fit-margin-right="0"
     fit-margin-bottom="0"
     inkscape:window-width="1191"
     inkscape:window-height="701"
     inkscape:window-x="720"
     inkscape:window-y="1563"
     inkscape:window-maximized="0">
    <inkscape:grid
       type="xygrid"
       id="grid3077"
       empspacing="5"
       visible="true"
       enabled="true"
       snapvisiblegridlinesonly="true"
       originx="-21.218275px"
       originy="-664.18034px" />
  </sodipodi:namedview>
  <metadata
     id="metadata7">
    <rdf:RDF>
      <cc:Work
         rdf:about="">
        <dc:format>image/svg+xml</dc:format>
        <dc:type
           rdf:resource="http://purl.org/dc/dcmitype/StillImage" />
        <dc:title></dc:title>
      </cc:Work>
    </rdf:RDF>
  </metadata>
  <g
     inkscape:label="Layer 1"
     inkscape:groupmode="layer"
     id="layer1"
     transform="translate(-21.218275,-23.526894)"
     style="display:inline;opacity:1">
    <rect
       style="fill:none;stroke:#000000;stroke-width:1.93594347999999994;stroke-opacity:1"
       id="rect2985"
       width="166.74939"
       height="108.16054"
       x="301.49341"
       y="277.03305"
       ry="22.223356"
       rx="22.223356" />
    <rect
       style="fill:none;stroke:#000000;stroke-width:1.16154443999999990;stroke-opacity:1"
       id="rect2985-1"
       width="137.21919"
       height="47.315628"
       x="21.799047"
       y="26.127964"
       ry="13.131983"
       rx="13.131983" />
    <rect
       style="fill:none;stroke:#000000;stroke-width:1.15222322999999993;stroke-opacity:1"
       id="rect2985-9"
       width="132.17776"
       height="48.335102"
       x="188.46956"
       y="25.11315"
       ry="18.182745"
       rx="18.182745" />
    <rect
       style="fill:none;stroke:#000000;stroke-width:1.25246382000000001;stroke-opacity:1"
       id="rect2985-7"
       width="153.29073"
       height="49.24501"
       x="350.1441"
       y="25.163277"
       ry="17.172594"
       rx="17.172594" />
    <rect
       style="fill:none;stroke:#000000;stroke-width:1.93689965999999991;stroke-opacity:1"
       id="rect2985-91"
       width="189.98193"
       height="95.027596"
       x="535.34424"
       y="24.495344"
       ry="23.233509"
       rx="23.233509" />
    <rect
       style="fill:none;stroke:#000000;stroke-width:1.18723248999999997;stroke-opacity:1"
       id="rect2985-98"
       width="132.14276"
       height="51.330551"
       x="43.025105"
       y="175.6434"
       inkscape:connector-avoid="true"
       ry="12.121831"
       rx="12.121831" />
    <rect
       style="fill:none;stroke:#000000;stroke-width:1.17826533000000011;stroke-opacity:1"
       id="rect2985-90"
       width="130.13142"
       height="51.33952"
       x="213.73637"
       y="176.64903"
       inkscape:connector-avoid="true"
       ry="19.192898"
       rx="19.192898" />
    <rect
       style="fill:none;stroke:#000000;stroke-width:1.27928102000000021;stroke-opacity:1"
       id="rect2985-5"
       width="163.36543"
       height="48.208046"
       x="371.37073"
       y="177.7097"
       inkscape:connector-avoid="true"
       ry="11.111678"
       rx="11.111678" />
    <rect
       style="fill:none;stroke:#000000;stroke-width:1.16401017000000007;stroke-opacity:1"
       id="rect2985-8"
       width="132.16597"
       height="49.333466"
       x="563.242"
       y="176.64191"
       inkscape:connector-avoid="true"
       ry="16.162441"
       rx="16.162441" />
    <rect
       style="fill:none;stroke:#000000;stroke-width:2.03365945999999997;stroke-opacity:1"
       id="rect2985-77"
       width="180.79378"
       height="110.08313"
       x="59.610748"
       y="277.08188"
       ry="23.233509"
       rx="23.233509" />
    <rect
       style="fill:none;stroke:#000000;stroke-width:1.32282375999999990;stroke-opacity:1"
       id="rect2985-99"
       width="161.30157"
       height="52.205112"
       x="517.8645"
       y="277.73663"
       ry="19.192898"
       rx="19.192898" />
    <text
       xml:space="preserve"
       style="font-size:40px;font-style:normal;font-weight:normal;line-height:125%;letter-spacing:0px;word-spacing:0px;fill:#000000;fill-opacity:1;stroke:none;font-family:Sans"
       x="48.888321"
       y="63.372334"
       id="text3079"
       sodipodi:linespacing="125%"><tspan
         sodipodi:role="line"
         id="tspan3081"
         x="48.888321"
         y="63.372334">Fork</tspan></text>
    <text
       xml:space="preserve"
       style="font-size:40px;font-style:normal;font-weight:normal;line-height:125%;letter-spacing:0px;word-spacing:0px;fill:#000000;fill-opacity:1;stroke:none;font-family:Sans"
       x="198.88832"
       y="63.372334"
       id="text3083"
       sodipodi:linespacing="125%"><tspan
         sodipodi:role="line"
         id="tspan3085"
         x="198.88832"
         y="63.372334">Clone</tspan></text>
    <text
       xml:space="preserve"
       style="font-size:40px;font-style:normal;font-weight:normal;line-height:125%;letter-spacing:0px;word-spacing:0px;fill:#000000;fill-opacity:1;stroke:none;font-family:Sans"
       x="355.85788"
       y="64.382484"
       id="text3087"
       sodipodi:linespacing="125%"><tspan
         sodipodi:role="line"
         id="tspan3089"
         x="355.85788"
         y="64.382484">Branch</tspan></text>
    <text
       xml:space="preserve"
       style="font-size:40px;font-style:normal;font-weight:normal;line-height:125%;letter-spacing:0px;word-spacing:0px;fill:#000000;fill-opacity:1;stroke:none;font-family:Sans"
       x="542.02026"
       y="59.331726"
       id="text3091"
       sodipodi:linespacing="125%"><tspan
         sodipodi:role="line"
         id="tspan3093"
         x="542.02026"
         y="59.331726">Make</tspan><tspan
         sodipodi:role="line"
         x="542.02026"
         y="109.33173"
         id="tspan3125">Changes</tspan></text>
    <text
       xml:space="preserve"
       style="font-size:40px;font-style:normal;font-weight:normal;line-height:125%;letter-spacing:0px;word-spacing:0px;fill:#000000;fill-opacity:1;stroke:none;font-family:Sans"
       x="67.375641"
       y="216.60583"
       id="text3095"
       sodipodi:linespacing="125%"><tspan
         sodipodi:role="line"
         id="tspan3097"
         x="67.375641"
         y="216.60583">Test</tspan></text>
    <text
       xml:space="preserve"
       style="font-size:40px;font-style:normal;font-weight:normal;line-height:125%;letter-spacing:0px;word-spacing:0px;fill:#000000;fill-opacity:1;stroke:none;font-family:Sans"
       x="241.41626"
       y="217.616"
       id="text3099"
       sodipodi:linespacing="125%"><tspan
         sodipodi:role="line"
         id="tspan3101"
         x="241.41626"
         y="217.616">Add</tspan></text>
    <text
       xml:space="preserve"
       style="font-size:40px;font-style:normal;font-weight:normal;line-height:125%;letter-spacing:0px;word-spacing:0px;fill:#000000;fill-opacity:1;stroke:none;font-family:Sans"
       x="372.12186"
       y="216.60583"
       id="text3103"
       sodipodi:linespacing="125%"><tspan
         sodipodi:role="line"
         id="tspan3105"
         x="372.12186"
         y="216.60583">Commit</tspan></text>
    <text
       xml:space="preserve"
       style="font-size:40px;font-style:normal;font-weight:normal;line-height:125%;letter-spacing:0px;word-spacing:0px;fill:#000000;fill-opacity:1;stroke:none;font-family:Sans"
       x="585.25385"
       y="216.70737"
       id="text3107"
       sodipodi:linespacing="125%"><tspan
         sodipodi:role="line"
         id="tspan3109"
         x="585.25385"
         y="216.70737">Push</tspan></text>
    <text
       xml:space="preserve"
       style="font-size:40px;font-style:normal;font-weight:normal;line-height:125%;letter-spacing:0px;word-spacing:0px;fill:#000000;fill-opacity:1;stroke:none;font-family:Sans"
       x="68.385796"
       y="316.60587"
       id="text3111"
       sodipodi:linespacing="125%"><tspan
         sodipodi:role="line"
         id="tspan3113"
         x="68.385796"
         y="316.60587">Pull</tspan><tspan
         sodipodi:role="line"
         x="68.385796"
         y="366.60587"
         id="tspan3123">Request</tspan></text>
    <text
       xml:space="preserve"
       style="font-size:40px;font-style:normal;font-weight:normal;line-height:125%;letter-spacing:0px;word-spacing:0px;fill:#000000;fill-opacity:1;stroke:none;font-family:Sans"
       x="309.29446"
       y="321.75818"
       id="text3115"
       sodipodi:linespacing="125%"><tspan
         sodipodi:role="line"
         id="tspan3117"
         x="309.29446"
         y="321.75818">Code</tspan><tspan
         sodipodi:role="line"
         x="309.29446"
         y="371.75818"
         id="tspan3127">Review</tspan></text>
    <text
       xml:space="preserve"
       style="font-size:40px;font-style:normal;font-weight:normal;line-height:125%;letter-spacing:0px;word-spacing:0px;fill:#000000;fill-opacity:1;stroke:none;font-family:Sans"
       x="537.17255"
       y="317.5145"
       id="text3119"
       sodipodi:linespacing="125%"><tspan
         sodipodi:role="line"
         id="tspan3121"
         x="537.17255"
         y="317.5145">Merge</tspan></text>
    <path
       style="fill:none;stroke:#000000;stroke-width:1px;stroke-linecap:butt;stroke-linejoin:miter;stroke-opacity:1"
       d="M 159.01823,49.785776 188.46956,49.2807"
       id="path3141"
       inkscape:connector-type="polyline"
       inkscape:connector-curvature="0" />
    <path
       style="fill:none;stroke:#000000;stroke-width:1px;stroke-linecap:butt;stroke-linejoin:miter;stroke-opacity:1"
       d="m 320.64734,49.2807 29.49676,0.505082"
       id="path3143"
       inkscape:connector-type="polyline"
       inkscape:connector-curvature="0" />
    <path
       style="fill:none;stroke:#000000;stroke-width:1px;stroke-linecap:butt;stroke-linejoin:miter;stroke-opacity:1"
       d="m 503.43481,49.785782 c 2.03113,26.280566 31.90943,22.223361 31.90943,22.223361"
       id="path3145"
       inkscape:connector-type="polyline"
       inkscape:connector-curvature="0"
       sodipodi:nodetypes="cc" />
    <path
       style="fill:none;stroke:#000000;stroke-width:1px;stroke-linecap:butt;stroke-linejoin:miter;stroke-opacity:1"
       d="m 725.32617,72.009143 0,0"
       id="path3159"
       inkscape:connector-type="polyline"
       inkscape:connector-curvature="0" />
    <path
       style="fill:none;stroke:#000000;stroke-width:1px;stroke-linecap:butt;stroke-linejoin:miter;stroke-opacity:1"
       d="m 725.32617,72.009143 0,0"
       id="path3161"
       inkscape:connector-type="polyline"
       inkscape:connector-curvature="0" />
    <path
       style="fill:none;stroke:#000000;stroke-width:1px;stroke-linecap:butt;stroke-linejoin:miter;stroke-opacity:1"
       d="M 630.33521,119.52294 C 586.84005,180.95915 99.848356,107.44402 109.09648,175.6434"
       id="path3207"
       inkscape:connector-type="polyline"
       inkscape:connector-curvature="0"
       sodipodi:nodetypes="cc" />
    <path
       style="fill:none;stroke:#000000;stroke-width:1px;stroke-linecap:butt;stroke-linejoin:miter;stroke-opacity:1"
       d="m 175.16786,201.30868 38.56851,1.01011"
       id="path3209"
       inkscape:connector-type="polyline"
       inkscape:connector-curvature="0" />
    <path
       style="fill:none;stroke:#000000;stroke-width:1px;stroke-linecap:butt;stroke-linejoin:miter;stroke-opacity:1"
       d="m 343.8678,202.31879 27.50293,-0.50506"
       id="path3211"
       inkscape:connector-type="polyline"
       inkscape:connector-curvature="0" />
    <path
       style="fill:none;stroke:#000000;stroke-width:1px;stroke-linecap:butt;stroke-linejoin:miter;stroke-opacity:1"
       d="m 563.242,201.30864 -28.50585,0.50509"
       id="path3213"
       inkscape:connector-type="polyline"
       inkscape:connector-curvature="0" />
    <path
       style="fill:none;stroke:#000000;stroke-width:1px;stroke-linecap:butt;stroke-linejoin:miter;stroke-opacity:1;display:inline"
       d="m 150.00764,277.08188 c 12.00784,-48.19929 416.77045,0.32556 479.31734,-51.10651"
       id="path3215"
       inkscape:connector-type="polyline"
       inkscape:connector-curvature="0"
       sodipodi:nodetypes="cc" />
    <path
       style="fill:none;stroke:#000000;stroke-width:1px;stroke-linecap:butt;stroke-linejoin:miter;stroke-opacity:1"
       d="m 301.49341,331.11333 -61.08888,1.01011"
       id="path3217"
       inkscape:connector-type="polyline"
       inkscape:connector-curvature="0" />
    <path
       style="fill:none;stroke:#000000;stroke-width:1px;stroke-linecap:butt;stroke-linejoin:miter;stroke-opacity:1"
       d="m 468.2428,331.11333 c -0.82459,-10.51107 39.88295,-7.30552 49.6217,-27.27414"
       id="path3219"
       inkscape:connector-type="polyline"
       inkscape:connector-curvature="0"
       sodipodi:nodetypes="cc" />
    <path
       style="fill:#ffe680;fill-opacity:1;stroke:#000000;stroke-width:0.17857143;stroke-opacity:1"
       d="m 31.555919,202.49714 c -3.390493,-0.73527 -6.357697,-3.08976 -7.864536,-6.24053 -1.211223,-2.53265 -1.166181,-1.81879 -1.166181,-18.48214 0,-16.71767 -0.05113,-15.92887 1.20378,-18.57143 1.299495,-2.73645 4.072932,-5.05531 7.189077,-6.01077 1.030583,-0.31599 3.20221,-0.32852 56.964286,-0.32852 53.762075,0 55.933705,0.0125 56.964285,0.32852 3.11144,0.95401 5.88736,3.28004 7.19657,6.03022 1.24614,2.61768 1.19629,1.84459 1.19629,18.55198 0,16.71766 0.0511,15.92887 -1.20378,18.57142 -1.01482,2.137 -3.02131,4.15195 -5.15183,5.1736 -2.8261,1.35518 2.19451,1.25002 -59.09082,1.23768 -46.408072,-0.009 -55.27017,-0.0503 -56.237141,-0.26003 z m 50.879998,-9.41068 c 0.933035,-0.24633 1.997768,-0.57392 2.366071,-0.72797 l 0.669643,-0.28009 0,-1.77828 0,-1.77828 -1.383929,0.57778 c -2.614923,1.09172 -3.460603,1.26065 -6.294642,1.25739 -2.272654,-0.003 -2.713792,-0.0527 -3.607434,-0.4095 -1.258041,-0.50231 -2.591054,-1.67602 -3.22375,-2.83849 -0.516599,-0.94916 -1.025959,-2.6765 -1.025959,-3.47921 l 0,-0.4982 8.214285,0 8.214286,0 0,-1.68072 c 0,-3.4539 -0.93843,-6.2075 -2.769886,-8.1276 -1.742278,-1.82659 -3.94351,-2.68683 -6.872971,-2.68594 -3.197875,8.9e-4 -5.525543,0.8803 -7.492193,2.83034 -1.340709,1.32939 -1.969587,2.35559 -2.639296,4.30678 -0.605113,1.76298 -0.771891,5.59783 -0.333943,7.67857 0.842644,4.00348 3.837662,7.05971 7.786861,7.946 1.865137,0.41857 6.240744,0.25561 8.392857,-0.31258 z m 19.839183,0.1695 c 2.25072,-0.73894 3.80931,-1.98281 4.59613,-3.66803 0.40186,-0.86072 0.47094,-1.24847 0.46771,-2.625 -0.003,-1.39614 -0.0706,-1.75159 -0.49628,-2.62172 -0.95642,-1.95484 -2.6332,-2.89352 -7.191595,-4.02588 -3.493688,-0.86788 -4.407293,-1.24871 -4.888289,-2.03764 -0.498384,-0.81746 -0.481172,-2.05713 0.03947,-2.84289 0.698813,-1.05465 1.837547,-1.47084 4.260725,-1.55723 2.314619,-0.0825 4.091889,0.20905 5.912209,0.96995 0.56177,0.23482 1.064,0.42695 1.11607,0.42695 0.0521,0 0.0947,-0.79734 0.0947,-1.77187 l 0,-1.77187 -0.58036,-0.18771 c -2.57618,-0.83325 -7.092726,-1.15864 -9.360409,-0.67436 -3.406875,0.72756 -5.290105,2.65177 -5.542571,5.66318 -0.220652,2.63193 0.834521,4.62219 3.041068,5.73605 0.611382,0.30863 2.408568,0.87739 4.128546,1.30658 4.615386,1.15168 5.443316,1.67837 5.594066,3.55863 0.0592,0.73808 -0.007,1.02607 -0.34904,1.52997 -0.93555,1.37636 -2.23703,1.85599 -4.967019,1.8305 -2.516003,-0.0235 -3.723153,-0.33872 -7.455357,-1.94685 -0.170869,-0.0736 -0.223214,0.36434 -0.223214,1.86765 l 0,1.96383 1.473214,0.39942 c 2.77505,0.75239 3.841695,0.88102 6.741072,0.81296 1.824774,-0.0428 3.047704,-0.15685 3.589184,-0.33462 l 0,0 z m -41.803469,-12.98149 0,-12.85715 5.178571,0 5.178572,0 0,-1.78571 0,-1.78572 -12.410714,0 -12.410715,0 0,1.78572 0,1.78571 5.178572,0 5.178571,0 0,12.85715 0,12.85714 2.053572,0 2.053571,0 0,-12.85714 z m 63.571429,11.25 0,-1.60715 -2.58567,0 c -2.99162,0 -3.83934,-0.22228 -4.34083,-1.1382 -0.27118,-0.49529 -0.31174,-1.35854 -0.35973,-7.65644 l -0.0541,-7.09821 3.67015,0 3.67016,0 0,-1.42858 0,-1.42857 -3.66071,0 -3.66072,0 0,-3.125 0,-3.125 -1.875,0 -1.875,0 0,3.125 0,3.125 -1.33928,0 -1.33929,0 0,1.42857 0,1.42858 1.3286,0 1.32861,0 0.0578,7.45535 c 0.0561,7.23473 0.0696,7.48475 0.45734,8.44849 0.99102,2.46336 2.67429,3.16254 7.67585,3.18833 l 2.90179,0.015 0,-1.60714 z"
       id="path3246"
       inkscape:connector-curvature="0"
       transform="translate(21.218275,23.526894)" />
    <path
       style="fill:#ffe680;fill-opacity:1;stroke:#000000;stroke-width:0.04464286;stroke-opacity:1"
       d="m 69.955901,179.85174 c 0.04649,-0.50026 0.193861,-1.16622 0.385354,-1.74145 0.665984,-2.00053 1.960468,-3.32316 3.880848,-3.96523 0.812092,-0.27152 1.426866,-0.36386 2.457677,-0.36915 0.957661,-0.005 1.548317,0.0787 2.200954,0.31171 2.187364,0.78083 3.620225,2.90498 3.767286,5.58483 l 0.02756,0.50223 -6.374847,0 -6.374847,0 0.03001,-0.32294 0,0 z"
       id="path3248"
       inkscape:connector-curvature="0"
       transform="translate(21.218275,23.526894)" />
    <path
       style="fill:#ffe680;fill-opacity:1;stroke:#000000;stroke-width:0.35714287;stroke-opacity:1"
       d="m 207.20661,203.07241 c -4.92682,-1.32698 -9.72555,-5.18614 -11.86521,-9.54206 -1.90513,-3.87847 -2.23915,-6.47859 -2.07571,-16.15828 0.13813,-8.18076 0.18705,-8.68341 1.07338,-11.0283 2.27093,-6.00807 6.91631,-10.24276 12.96416,-11.81803 1.83348,-0.47756 8.1864,-0.54653 50.34106,-0.54653 42.16706,0 48.5072,0.0689 50.3423,0.54686 6.2226,1.62078 11.33093,6.65363 13.19506,13.00011 0.82957,2.82427 0.82957,19.72466 0,22.54893 -1.85521,6.3161 -7.00223,11.38708 -13.19506,13.00011 -1.83751,0.47861 -8.14044,0.54392 -50.50662,0.52335 -40.43666,-0.0196 -48.71439,-0.10627 -50.27336,-0.52616 l 0,0 z m 54.75147,-9.05617 c 0.80115,-0.36387 1.80561,-1.10523 2.23214,-1.64747 l 0.7755,-0.98589 0,1.47674 0,1.47674 1.96428,0 1.96429,0 0,-15.35715 0,-15.35714 -1.96429,0 -1.96428,0 0,5.76245 0,5.76245 -0.74805,-0.95099 c -1.73118,-2.20084 -5.44877,-3.1463 -8.67901,-2.20724 -2.43692,0.70843 -4.21709,2.37391 -5.53015,5.17387 -0.8412,1.79377 -0.93502,2.40978 -0.92946,6.10232 0.005,3.50636 0.12605,4.37396 0.82564,5.93121 0.87837,1.95521 2.7881,4.03927 4.52531,4.93841 1.52824,0.79098 5.6693,0.7259 7.52808,-0.11831 l 0,0 z m 25.48811,-0.0271 c 0.75932,-0.38738 1.7172,-1.13227 2.12863,-1.65531 l 0.74804,-0.95098 0,1.47674 0,1.47674 1.96429,0 1.96428,0 0,-15.35715 0,-15.35714 -1.96428,0 -1.96429,0 0,5.60253 0,5.60254 -0.98214,-0.91891 c -3.38457,-3.16663 -8.61555,-3.10226 -11.74688,0.14456 -1.84773,1.91588 -2.44167,3.09 -3.00083,5.93214 -1.18745,6.0357 0.99283,11.97513 5.19414,14.14962 1.6008,0.82854 5.91035,0.74674 7.65904,-0.14537 l 0,-1e-5 z m -61.96204,-1.52781 c 0.36274,-1.03125 0.96854,-2.71875 1.34621,-3.75 l 0.68668,-1.875 6.37725,0 6.37725,0 0.68668,1.875 c 0.37767,1.03125 0.98347,2.71875 1.34621,3.75 l 0.65953,1.875 2.28064,0 c 1.25435,0 2.22707,-0.14449 2.16159,-0.32109 -0.0655,-0.1766 -2.60698,-6.84624 -5.6478,-14.82143 l -5.52875,-14.50034 -2.34864,0 -2.34863,0 -5.47825,14.375 c -3.01304,7.90625 -5.55237,14.57589 -5.64297,14.82143 -0.12096,0.32784 0.44336,0.44643 2.12438,0.44643 l 2.28909,0 0.65953,-1.875 0,0 z"
       id="path3250"
       inkscape:connector-curvature="0"
       transform="translate(21.218275,23.526894)" />
    <path
       style="fill:#ffe680;fill-opacity:1;stroke:#000000;stroke-width:0.06313454;stroke-opacity:1"
       d="m 257.76831,191.53006 c -1.74339,-0.34107 -3.11168,-1.43695 -3.94792,-3.16194 -0.77092,-1.59023 -1.04477,-3.13003 -0.99194,-5.57741 0.0464,-2.14915 0.3022,-3.37996 0.99276,-4.77665 0.8032,-1.6245 2.00838,-2.68215 3.53672,-3.1038 0.60166,-0.16599 2.37996,-0.16393 2.99889,0.003 1.89794,0.51333 3.30584,1.98927 4.04239,4.23776 0.6818,2.08137 0.75592,5.13351 0.18059,7.43621 -0.3841,1.53729 -1.03049,2.70332 -2.01167,3.62883 -0.60506,0.57073 -1.25035,0.93713 -2.08504,1.18389 -0.70218,0.20758 -1.99969,0.26955 -2.71478,0.12965 l 0,0 z"
       id="path3252"
       inkscape:connector-curvature="0"
       transform="translate(21.218275,23.526894)" />
    <path
       style="fill:#ffe680;fill-opacity:1;stroke:#000000;stroke-width:0.06313454;stroke-opacity:1"
       d="m 228.68294,182.9859 c 0.0626,-0.16494 1.24799,-3.37533 2.63416,-7.1342 1.38617,-3.75887 2.53524,-6.83431 2.55348,-6.83431 0.0229,0 4.59769,12.27951 5.29408,14.21006 0.0128,0.0354 -2.06608,0.0583 -5.28726,0.0583 l -5.3083,0 0.11384,-0.29989 0,0 z"
       id="path3254"
       inkscape:connector-curvature="0"
       transform="translate(21.218275,23.526894)" />
    <path
       style="fill:#ffe680;fill-opacity:1;stroke:#000000;stroke-width:0.06313454;stroke-opacity:1"
       d="m 283.28474,191.55757 c -2.63453,-0.47809 -4.28375,-2.4477 -4.91739,-5.87267 -0.1163,-0.62862 -0.13447,-0.96326 -0.13537,-2.49381 -9.1e-4,-1.54243 0.0162,-1.86032 0.13432,-2.49382 0.36521,-1.95883 0.95563,-3.25325 1.96713,-4.31274 0.74045,-0.77558 1.45981,-1.21021 2.43615,-1.47189 0.62033,-0.16626 2.39976,-0.16767 2.99889,-0.002 2.01675,0.55639 3.51074,2.25601 4.16573,4.73912 0.36856,1.39723 0.50725,3.09116 0.38303,4.67813 -0.22612,2.88861 -1.09859,4.90804 -2.66604,6.17089 -0.45541,0.36691 -1.34278,0.80522 -1.94585,0.96115 -0.47443,0.12266 -1.95453,0.1826 -2.4206,0.098 l 0,0 z"
       id="path3256"
       inkscape:connector-curvature="0"
       transform="translate(21.218275,23.526894)" />
    <path
       style="fill:#ffe680;fill-opacity:1;stroke:#000000;stroke-width:0.12626907;stroke-opacity:1"
       d="m 359.81126,201.57515 c -2.01968,-0.28534 -4.11074,-1.29885 -5.62289,-2.72533 -1.45479,-1.37237 -2.29625,-2.73193 -2.91965,-4.71727 l -0.29629,-0.94362 0,-14.89975 0,-14.89975 0.29629,-0.94361 c 0.60867,-1.93842 1.44555,-3.31099 2.81661,-4.61946 1.39904,-1.33518 2.69338,-2.07125 4.58951,-2.60996 l 1.01015,-0.28699 71.6577,-0.0326 c 78.27998,-0.0356 72.70634,-0.0854 74.71435,0.66837 3.29806,1.23811 5.81642,4.19306 6.52918,7.66108 0.17551,0.85399 0.20002,2.70004 0.20002,15.06291 0,15.52429 0.0236,15.0155 -0.78778,16.97027 -1.25395,3.02094 -3.84915,5.24631 -7.19105,6.16628 -0.75201,0.20702 -4.83507,0.22041 -72.5177,0.23791 -39.44646,0.0102 -72.06176,-0.0296 -72.47845,-0.0885 z m 10.694,-8.13222 c 1.8232,-0.32105 3.86232,-1.08445 5.41325,-2.02659 l 0.74967,-0.4554 0,-2.14658 0,-2.14659 -0.41037,0.33291 c -2.87302,2.33068 -5.5094,3.3472 -8.681,3.3472 -5.33168,0 -8.7343,-2.78834 -9.86155,-8.08122 -0.40794,-1.91547 -0.40794,-5.53441 0,-7.44987 0.90304,-4.24014 3.16366,-6.79065 6.89423,-7.7783 1.37489,-0.364 4.6782,-0.3366 6.12405,0.0508 1.5139,0.40562 3.64875,1.48751 4.89592,2.48113 l 1.04471,0.83233 -0.0346,-2.17872 -0.0346,-2.17873 -0.88389,-0.53246 c -3.44242,-2.07378 -8.44317,-2.71519 -12.71602,-1.63099 -3.66199,0.9292 -6.57017,3.28482 -8.27773,6.70494 -1.86986,3.74519 -2.16933,9.68076 -0.71351,14.14214 1.45474,4.45809 5.06085,7.6842 9.65513,8.63772 1.97326,0.40954 4.76675,0.44072 6.83623,0.0763 z m 22.13596,0.17699 c 1.31462,-0.15792 2.7329,-0.59795 3.72494,-1.15568 1.04088,-0.58518 2.74679,-2.36886 3.32558,-3.47719 1.05987,-2.02952 1.47133,-3.94735 1.47213,-6.86169 0.001,-3.92919 -0.93531,-6.69413 -2.96681,-8.76028 -1.83203,-1.86326 -4.10032,-2.72223 -7.15839,-2.71077 -2.02483,0.008 -3.84277,0.45198 -5.27055,1.28838 -0.91052,0.53339 -2.48089,2.10773 -3.02066,3.0283 -0.9567,1.63162 -1.47766,3.4347 -1.64874,5.70636 -0.20624,2.73844 0.19567,5.6525 1.04239,7.55797 1.7636,3.96883 5.65853,5.9662 10.50011,5.3846 l 0,0 z m 18.02298,-7.59676 c 0.0476,-7.83605 0.0244,-7.59404 0.88599,-9.22158 0.51773,-0.97797 1.75958,-2.12812 2.70614,-2.50635 0.62368,-0.2492 0.96317,-0.29392 2.24974,-0.29634 1.40668,-0.003 1.56171,0.0217 2.16398,0.33934 1.12113,0.59135 1.82096,1.6594 2.21539,3.381 0.0778,0.33963 0.15534,3.56778 0.19185,7.98826 l 0.0613,7.41831 1.81227,0 1.81226,0 0.0465,-7.0395 c 0.0513,-7.76195 0.0466,-7.71195 0.8816,-9.28472 0.52509,-0.98902 1.76415,-2.13204 2.70726,-2.49743 0.99047,-0.38374 2.88081,-0.48102 3.85337,-0.19829 0.85838,0.24954 1.76486,1.01934 2.19132,1.86092 0.7114,1.40388 0.7249,1.57128 0.7804,9.67758 l 0.0512,7.48144 1.82818,0 1.82817,0 -0.0443,-7.92338 c -0.043,-7.68021 -0.0528,-7.95555 -0.3214,-8.97134 -0.97906,-3.703 -3.28019,-5.5782 -6.84391,-5.57712 -2.94645,8.9e-4 -5.43361,1.31066 -7.00576,3.68932 -0.26393,0.39932 -0.52175,0.72604 -0.57295,0.72604 -0.0512,0 -0.16709,-0.18467 -0.25757,-0.41037 -0.50123,-1.25042 -1.72035,-2.61431 -2.89777,-3.24187 -2.2341,-1.19076 -5.88477,-0.97143 -7.99483,0.48032 -0.64892,0.44647 -1.51406,1.29462 -1.99901,1.95975 l -0.35905,0.49245 0,-1.59731 0,-1.59731 -1.89403,0 -1.89404,0 0,10.98541 0,10.98541 1.88728,0 1.88728,0 0.0431,-7.10264 z m 39.01534,-0.0631 c 0.0371,-7.04794 0.0423,-7.17958 0.32176,-8.00545 0.8641,-2.55402 2.88238,-4.02168 5.53048,-4.02168 1.81753,0 2.95671,0.61219 3.6831,1.97927 0.75235,1.41597 0.79089,1.90068 0.79089,9.94784 l 0,7.26579 1.89403,0 1.89404,0 0,-6.69758 c 0,-7.12632 0.046,-7.78352 0.64134,-9.17251 0.63121,-1.47255 1.91559,-2.62828 3.4331,-3.08921 1.23883,-0.37628 3.0388,-0.296 3.95501,0.17641 0.74725,0.38529 1.37675,1.05474 1.71871,1.8278 0.56652,1.28072 0.6014,1.83529 0.60371,9.59992 l 0.002,7.35517 1.90103,0 1.90102,0 -0.0433,-7.86025 -0.0433,-7.86025 -0.33537,-1.23159 c -0.98901,-3.6319 -3.29633,-5.51576 -6.76317,-5.52194 -2.98994,-0.005 -5.38789,1.23755 -7.03301,3.64528 l -0.59802,0.87522 -0.44983,-0.90379 c -0.55767,-1.12045 -1.81881,-2.42359 -2.80452,-2.8979 -1.50143,-0.72247 -3.50796,-0.92091 -5.36644,-0.53071 -1.6974,0.35637 -3.38387,1.4624 -4.5237,2.96676 l -0.33486,0.44194 -0.001,-1.54679 -10e-4,-1.5468 -1.89403,0 -1.89404,0 0,10.98541 0,10.98541 1.88912,0 1.88912,0 0.0377,-7.16577 z m 38.98931,-3.81964 0,-10.98541 -1.83091,0 -1.8309,0 0,10.98541 0,10.98541 1.8309,0 1.83091,0 0,-10.98541 z m 18.53387,9.43861 -0.0355,-1.54679 -2.77791,-0.0631 c -3.10316,-0.0705 -3.52037,-0.17107 -4.05742,-0.97782 -0.49028,-0.73649 -0.55141,-1.67564 -0.55141,-8.47113 l 0,-6.46095 3.72494,0 3.72494,0 0,-1.45209 0,-1.4521 -3.72494,0 -3.72494,0 0,-3.09359 0,-3.09359 -1.89403,0 -1.89404,0 0,3.09359 0,3.09359 -1.32582,0 -1.32583,0 0,1.4521 0,1.45209 1.32583,0 1.32582,0 0,6.04754 c 0,3.35165 0.0596,6.62839 0.13372,7.35053 0.33598,3.27409 1.43858,4.75602 3.97003,5.33586 1.30266,0.29839 1.28204,0.29688 4.3286,0.3155 l 2.81338,0.0172 -0.0355,-1.5468 z m -18.53387,-26.54807 0,-2.33598 -1.83091,0 -1.8309,0 0,2.33598 0,2.33598 1.8309,0 1.83091,0 0,-2.33598 z"
       id="path3258"
       inkscape:connector-curvature="0"
       transform="translate(21.218275,23.526894)" />
    <path
       style="fill:#ffe680;fill-opacity:1;stroke:#000000;stroke-width:0.12626907;stroke-opacity:1"
       d="m 390.18525,190.45807 c -2.55984,-0.31562 -4.47359,-2.55242 -5.06192,-5.91639 -0.18484,-1.05688 -0.18414,-3.75804 10e-4,-4.78034 0.63347,-3.49338 2.65285,-5.68414 5.4561,-5.91915 3.04487,-0.25527 5.44704,1.70669 6.37241,5.20461 0.18659,0.70533 0.2335,1.34301 0.2322,3.15673 -0.001,1.98352 -0.0381,2.39953 -0.28829,3.26809 -1.06151,3.6854 -3.3677,5.39876 -6.71174,4.98645 l 0,0 z"
       id="path3260"
       inkscape:connector-curvature="0"
       transform="translate(21.218275,23.526894)" />
    <path
       style="fill:#ffe680;fill-opacity:1;stroke:#000000;stroke-width:0.71428573;stroke-opacity:1"
       d="m 552.18534,200.22167 c -3.04763,-1.32687 -7.19299,-5.76414 -8.29987,-8.88433 -0.60723,-1.71173 -0.92057,-6.50058 -0.91783,-14.02757 0.005,-12.56669 0.60023,-14.78997 5.10899,-19.06925 4.51795,-4.28799 2.44384,-4.14503 60.13949,-4.14503 l 52.79852,0 3.82053,1.99587 c 2.7787,1.4516 4.4079,2.9449 5.97442,5.47605 2.11865,3.42324 2.15767,3.66171 2.38485,14.57715 0.26091,12.53634 -0.32828,15.72938 -3.64486,19.75298 -4.60354,5.58488 -1.41859,5.31094 -61.5861,5.29716 -43.28547,-0.01 -53.99513,-0.19674 -55.77814,-0.97303 z m 51.8568,-7.91845 c 1.28062,-1.15893 1.42134,-1.16925 1.42134,-0.10415 0,0.83729 0.6251,1.18213 2.14286,1.18213 l 2.14285,0 0,-11.07143 0,-11.07143 -2.14285,0 -2.14286,0 0,6.82119 c 0,7.59276 -1.02921,10.64791 -3.96278,11.76325 -2.17458,0.82677 -4.95627,-0.1361 -5.99379,-2.07472 -0.41674,-0.77869 -0.75772,-4.81193 -0.75772,-8.96276 l 0,-7.54696 -2.14285,0 -2.14286,0 0,7.88009 c 0,8.59382 0.85755,11.82882 3.67455,13.86179 2.14579,1.54856 7.87785,1.15675 9.90411,-0.677 l 0,0 z m 23.88679,0.78131 c 2.8415,-1.18726 3.96312,-2.97523 3.96312,-6.31758 0,-3.24319 -2.16329,-5.13724 -7.423,-6.49914 -4.90324,-1.26959 -5.7468,-1.9191 -5.1077,-3.93275 0.60604,-1.90946 4.61227,-2.69807 8.21819,-1.61771 3.59153,1.07605 3.59823,1.07419 3.59823,-0.99669 0,-2.2424 -2.20363,-3.19766 -7.36793,-3.19393 -6.30039,0.005 -9.97082,3.41653 -8.77987,8.16166 0.65954,2.62778 2.2606,3.84844 6.72731,5.12896 6.29991,1.80606 7.46036,3.47515 3.99485,5.74584 -1.54751,1.01397 -2.40407,1.09329 -5.17857,0.47957 -1.8284,-0.40444 -3.91047,-0.9872 -4.62682,-1.29501 -1.1334,-0.487 -1.27247,-0.24943 -1.07143,1.83026 0.17828,1.84429 0.63871,2.50236 2.01674,2.88249 3.10594,0.85677 8.52863,0.67204 11.03688,-0.37597 z m -55.32259,-5.41762 0,-5.71428 3.03571,-0.004 c 7.68002,-0.0101 11.25,-2.77061 11.25,-8.69923 0,-4.29591 -1.3822,-7.14913 -4.05357,-8.36763 -1.10982,-0.50622 -4.99107,-1.09817 -8.625,-1.31543 l -6.60714,-0.39503 0,15.10494 0,15.10495 2.5,0 2.5,0 0,-5.71429 z m 68.6868,-2.1248 c 0.20669,-6.70162 0.44905,-8.04246 1.67034,-9.24068 2.22761,-2.18554 4.81016,-2.52048 6.83088,-0.88592 1.63352,1.32136 1.75531,1.917 1.98058,9.68681 l 0.24005,8.27888 2.08138,0 2.0814,0 0,-7.88009 c 0,-8.7737 -0.8938,-11.98285 -3.8829,-13.94138 -2.3069,-1.51154 -7.66223,-1.08374 -9.71752,0.77627 -1.37834,1.24739 -1.39958,1.18362 -1.39958,-4.20124 l 0,-5.46785 -2.14286,0 -2.14286,0 0,15.35715 0,15.35714 2.07966,0 2.07966,0 0.24177,-7.83909 z"
       id="path3262"
       inkscape:connector-curvature="0"
       transform="translate(21.218275,23.526894)" />
    <path
       style="fill:#ffe680;fill-opacity:1;stroke:#000000;stroke-width:0.06313454;stroke-opacity:1"
       d="m 571.92494,172.74371 0,-5.47164 3.01467,0.0302 c 3.20723,0.0321 3.38465,0.0471 4.3405,0.36564 0.78219,0.26071 1.36573,0.62079 1.93383,1.1933 0.99078,0.99847 1.44939,2.4345 1.36094,4.26137 -0.13005,2.68582 -1.49399,4.33172 -4.08395,4.92822 -0.40294,0.0928 -0.92747,0.11319 -3.51975,0.13681 l -3.04624,0.0278 0,-5.47164 z"
       id="path3264"
       inkscape:connector-curvature="0"
       transform="translate(21.218275,23.526894)" />
    <path
       style="fill:#ffe680;fill-opacity:1;stroke:#000000;stroke-width:0.71428573;stroke-opacity:1"
       d="m 529.63052,93.001887 c -5.17396,-1.990564 -9.16268,-5.704143 -11.73159,-10.922329 l -2.20277,-4.474471 0.20849,-29.95983 c 0.19327,-27.771653 0.30694,-30.142419 1.55636,-32.459827 1.77202,-3.286713 5.38558,-7.857143 6.21215,-7.857143 0.37436,0 0.65427,6.111791 0.65427,14.285714 l 0,14.285715 2.14286,0 2.14285,0 0.0349,-11.964286 0.0349,-11.964286 1.77095,4.642857 c 0.97402,2.553572 2.60034,6.830263 3.61404,9.50376 1.77539,4.682318 1.92476,4.852891 4.06571,4.642857 2.14041,-0.209982 2.34226,-0.534068 5.45818,-8.763637 l 3.23558,-8.54559 0.19671,11.224162 0.19671,11.224163 2.12472,0 2.12472,0 0,-14.642858 0,-14.6428567 -3.15184,0 -3.15184,0 -1.82802,4.8214287 c -1.00541,2.651786 -2.59452,6.877486 -3.53135,9.390446 l -1.70334,4.569017 -2.15323,-5.640446 c -1.18427,-3.102245 -2.74704,-7.313201 -3.47282,-9.357681 -1.30582,-3.6784148 -1.35341,-3.7194426 -4.55644,-3.9285716 l -3.23684,-0.211336 3.57143,-1.7857143 3.57143,-1.7857143 76.18959,-0.1911481 76.18959,-0.1911481 4.10956,1.5375832 c 5.20713,1.948238 9.71362,6.0856388 12.24664,11.2436362 l 1.97891,4.029648 0,29.285715 c 0,29.060692 -0.0127,29.3137 -1.64865,32.927728 -1.93283,4.269779 -6.3277,8.773243 -10.85135,11.119457 -3.15888,1.638365 -3.62675,1.669958 -27.14286,1.832858 -21.07429,0.145978 -23.65718,0.04593 -21.65337,-0.838943 4.03638,-1.7824 4.75624,-4.287822 5.09124,-17.719672 l 0.29841,-11.964286 -2.22529,0 c -1.47908,0 -2.22528,0.351199 -2.22528,1.04734 0,0.836239 -0.51043,0.746175 -2.53244,-0.446841 -3.41096,-2.012512 -7.63729,-1.474723 -10.44054,1.328531 -4.32887,4.328862 -4.26699,13.798035 0.11882,18.183842 1.64746,1.647464 2.65488,2.029986 5.34618,2.029986 3.29858,0 5.95971,-0.9283 6.96133,-2.428358 0.92068,-1.37885 0.61903,0.872443 -0.4643,3.465236 -1.63805,3.920393 -4.67912,4.710443 -10.95333,2.845615 -1.41955,-0.421922 -1.60715,-0.223636 -1.60715,1.698807 0,1.689185 0.35983,2.245793 1.60715,2.486035 0.88393,0.17025 -20.57143,0.336572 -47.67857,0.3696 -47.25328,0.05757 -49.43523,0.0029 -52.9112,-1.334764 l 0,0 z m 15.05405,-7.852993 c 1.62144,-0.790593 2.19732,-1.608493 2.36669,-3.361286 0.26,-2.690864 -0.16598,-2.816 -3.07001,-0.901821 -5.01424,3.305136 -11.88824,2.241536 -14.63551,-2.264514 -1.78264,-2.923886 -1.9787,-10.313512 -0.36391,-13.71642 2.37075,-4.995984 9.22416,-6.349573 15.0027,-2.963122 l 3.20004,1.875347 0,-2.511767 c 0,-3.580215 -2.86577,-5.015436 -10.05216,-5.034273 -4.67492,-0.01225 -5.79921,0.243844 -8.28122,1.886365 -4.22296,2.794618 -5.59519,6.107903 -5.59519,13.509698 0,5.520636 0.19834,6.42415 2.01153,9.163215 2.78437,4.206171 6.60415,5.898507 12.63133,5.596242 2.55357,-0.128057 5.60714,-0.703007 6.78571,-1.277664 l 0,0 z m 44.10715,0.431636 c 1.08035,-0.563564 1.96428,-0.7223 1.96428,-0.352743 0,0.369564 0.96429,0.671929 2.14286,0.671929 l 2.14286,0 -0.0105,-8.392858 c -0.007,-5.261599 -0.34345,-9.059082 -0.90283,-10.178571 -1.45457,-2.911071 -5.21926,-4.437069 -9.86002,-3.996704 -5.61289,0.532611 -6.36951,0.940679 -6.36951,3.43526 0,1.761153 0.22266,2.050963 1.25,1.62697 4.48249,-1.849965 8.05416,-1.775014 10.35714,0.217343 2.18766,1.892585 1.52851,3.00248 -1.78571,3.006829 -4.21486,0.0055 -8.1401,1.213015 -9.82608,3.022702 -1.63611,1.756157 -1.9443,7.314329 -0.50835,9.168021 2.21453,2.858779 7.69124,3.709551 11.40586,1.771822 l 0,0 z m 80.42912,0.249307 c 1.82621,-0.636614 2.24945,-1.174186 2.24945,-2.857143 0,-2.423343 0.16855,-2.368957 -3.10412,-1.00155 -3.22233,1.346379 -6.39832,1.365414 -8.93515,0.05357 -1.78624,-0.9237 -3.67502,-3.721822 -3.67502,-5.444322 0,-0.391921 3.48468,-0.680678 8.21429,-0.680678 l 8.21428,0 0,-2.689715 c 0,-7.58441 -7.3234,-12.200295 -14.55961,-9.176813 -3.65806,1.528432 -5.70556,4.963703 -5.9903,10.050428 -0.44267,7.90815 3.71213,12.530385 11.26324,12.530385 2.24042,0 5.08574,-0.352871 6.32294,-0.784164 z m 22.0427,-1.541557 c 1.34864,-1.348636 1.92103,-2.661157 1.92103,-4.404986 0,-3.937778 -1.92225,-5.480986 -9.31894,-7.481355 -3.25868,-0.88128 -4.18397,-2.165346 -2.86256,-3.972484 0.97845,-1.338108 4.52191,-1.696621 8.55443,-0.865504 2.68143,0.552652 2.72597,0.526932 2.5,-1.443636 -0.19706,-1.718471 -0.6575,-2.096022 -3.20931,-2.6316 -6.17918,-1.296898 -11.99702,1.007941 -12.39627,4.911001 -0.50425,4.929464 0.97067,6.751578 6.61136,8.167657 4.38981,1.102043 5.54986,1.871335 5.54986,3.680385 0,2.749515 -5.12834,3.6557 -9.75302,1.723386 -3.33412,-1.393078 -3.2302,-1.435828 -2.9708,1.221929 0.27635,2.831521 1.86378,3.417478 8.62422,3.183421 4.16922,-0.144343 5.09143,-0.42965 6.75,-2.088214 l 0,0 z M 556.47029,78.496044 c 0,-6.408528 0.19898,-7.656643 1.48041,-9.285715 1.07391,-1.365248 2.13865,-1.882042 3.87755,-1.882042 4.10568,0 4.64204,1.20259 4.64204,10.408164 l 0,8.163265 2.14285,0 2.14286,0 0,-8.6069 c 0,-9.719447 -0.74007,-12.067304 -4.26383,-13.526892 -2.6322,-1.090295 -6.82424,-0.538623 -8.6819,1.142537 -1.29936,1.175906 -1.33998,1.046921 -1.33998,-4.255183 l 0,-5.467848 -2.14286,0 -2.14286,0 0,15.357143 0,15.357143 2.14286,0 2.14286,0 0,-7.403672 z m 50,0 c 0,-6.408528 0.19898,-7.656643 1.48041,-9.285715 1.07391,-1.365248 2.13865,-1.882042 3.87755,-1.882042 4.10568,0 4.64204,1.20259 4.64204,10.408164 l 0,8.163265 2.14285,0 2.14286,0 0,-8.6069 c 0,-6.208664 -0.29508,-9.177527 -1.05901,-10.654792 -1.8872,-3.649463 -8.69868,-4.614701 -11.92983,-1.690548 -1.20334,1.089002 -1.29687,1.08839 -1.29687,-0.0085 0,-0.837292 -0.6251,-1.182135 -2.14286,-1.182135 l -2.14286,0 0,11.071429 0,11.071429 2.14286,0 2.14286,0 0,-7.403672 z M 570.07719,35.52423 c 1.20796,-0.624663 2.10738,-0.77709 2.10738,-0.357143 0,0.402946 0.96429,0.732629 2.14286,0.732629 l 2.14286,0 0,-7.927765 c 0,-11.141739 -1.43576,-13.753888 -8.05872,-14.661666 -1.66512,-0.22823 -4.39024,-0.04801 -6.05582,0.400479 -2.66671,0.718072 -3.02832,1.059685 -3.02832,2.860863 l 0,2.04542 3.18758,-0.959321 c 3.28688,-0.989204 6.61734,-0.544783 8.66736,1.156586 2.15221,1.786174 1.05543,2.603927 -3.97515,2.963864 -6.01954,0.430695 -8.25178,1.741903 -9.3808,5.510232 -0.98488,3.287228 -0.0134,6.541287 2.47267,8.282613 1.94069,1.359309 7.1068,1.334587 9.7781,-0.04679 l 0,2e-6 z m 51.28651,0.305611 c 1.81539,-0.63285 2.24944,-1.178048 2.24944,-2.825458 l 0,-2.041297 -2.94695,1.039743 c -5.78945,2.042642 -10.56547,0.714257 -11.9756,-3.330856 -0.43545,-1.249131 -0.79173,-2.383897 -0.79173,-2.521702 0,-0.137805 3.69643,-0.250555 8.21428,-0.250555 l 8.21429,0 -0.001,-2.678572 c -0.003,-6.380591 -4.62753,-10.572144 -10.91699,-9.894104 -4.33882,0.467749 -7.17856,2.488059 -8.64352,6.149348 -2.41514,6.036033 -0.86257,12.418544 3.77439,15.516233 2.72635,1.821317 8.85307,2.221318 12.8235,0.83722 l 3.2e-4,0 z m -34.17913,-5.09082 0,-5.160695 5.19537,5.160695 c 4.69013,4.658825 5.47005,5.160695 8.01995,5.160695 l 2.82457,0 -5.83644,-5.892858 -5.83645,-5.892857 5.76549,-5 5.76548,-5 -2.64067,-0.2246 c -2.19321,-0.186543 -3.1862,0.237087 -5.86005,2.5 -1.77067,1.49853 -4.1594,3.489009 -5.30832,4.423285 l -2.08893,1.698686 0,-8.662971 0,-8.6629712 -2.14285,0 -2.14286,0 0,15.3571432 0,15.357143 2.14286,0 2.14285,0 0,-5.160695 z"
       id="path3266"
       inkscape:connector-curvature="0"
       transform="translate(21.218275,23.526894)" />
    <path
       style="fill:#ffe680;fill-opacity:1;stroke:#000000;stroke-width:0.12626907;stroke-opacity:1"
       d="m 564.67765,33.177144 c -1.2882,-0.253165 -2.37528,-1.074057 -2.92617,-2.209644 -0.23913,-0.492947 -0.30246,-0.830697 -0.30594,-1.631763 -0.006,-1.309629 0.22642,-2.077738 0.83769,-2.772175 1.08066,-1.227701 2.58089,-1.579434 7.15244,-1.676919 l 3.19629,-0.06816 -0.0785,1.122205 c -0.17313,2.473949 -0.78408,4.120681 -2.02677,5.462934 -1.39784,1.509834 -3.67592,2.200589 -5.84901,1.773521 z"
       id="path3268"
       inkscape:connector-curvature="0"
       transform="translate(21.218275,23.526894)" />
    <path
       style="fill:#ffe680;fill-opacity:1;stroke:#000000;stroke-width:0.12626907;stroke-opacity:1"
       d="m 607.89756,22.191704 c 0.28238,-2.12866 1.62734,-4.083481 3.41014,-4.956435 1.56013,-0.763919 3.85162,-0.914716 5.42165,-0.356785 2.01212,0.715028 3.4419,2.733289 3.70248,5.226359 l 0.0761,0.728037 -6.34771,0 -6.34771,0 0.0851,-0.641176 z"
       id="path3270"
       inkscape:connector-curvature="0"
       transform="translate(21.218275,23.526894)" />
    <path
       style="fill:#ffe680;fill-opacity:1;stroke:#000000;stroke-width:0.12626907;stroke-opacity:1"
       d="m 583.41197,83.133003 c -1.47447,-0.376669 -2.16723,-0.895549 -2.73466,-2.048279 -0.38249,-0.777037 -0.42116,-0.95831 -0.41244,-1.933281 0.0213,-2.383018 1.12977,-3.496186 4.03099,-4.048168 0.41669,-0.07928 2.19969,-0.175285 3.96223,-0.213347 l 3.20463,-0.0692 -0.0932,1.248629 c -0.1781,2.386775 -0.78695,3.995478 -2.01363,5.320444 -1.45607,1.572724 -3.85605,2.276577 -5.94395,1.743205 z"
       id="path3272"
       inkscape:connector-curvature="0"
       transform="translate(21.218275,23.526894)" />
    <path
       style="fill:#ffe680;fill-opacity:1;stroke:#000000;stroke-width:0.12626907;stroke-opacity:1"
       d="m 634.7031,82.56993 c -1.62,-0.393571 -2.89482,-1.447011 -3.64049,-3.00831 -0.69278,-1.450558 -0.85011,-2.210252 -0.92258,-4.454839 -0.0552,-1.708319 -0.026,-2.209714 0.18865,-3.246846 0.64105,-3.097037 2.3026,-4.899198 4.88747,-5.301059 1.87251,-0.291113 3.60729,0.257889 4.85862,1.537595 1.1861,1.213001 1.76703,2.689374 2.03675,5.176203 0.34783,3.206987 -0.43701,6.207082 -2.0569,7.862651 -1.34354,1.373137 -3.36927,1.916181 -5.35152,1.434605 z"
       id="path3274"
       inkscape:connector-curvature="0"
       transform="translate(21.218275,23.526894)" />
    <path
       style="fill:#ffe680;fill-opacity:1;stroke:#000000;stroke-width:0.12626907;stroke-opacity:1"
       d="m 655.67281,72.360429 c 0.12756,-0.863913 0.66823,-2.383371 1.07391,-3.018034 1.16239,-1.818469 3.05175,-2.759315 5.56858,-2.772993 1.49485,-0.0081 2.32775,0.21363 3.33917,0.889031 1.52022,1.015164 2.39181,2.633551 2.60599,4.838861 l 0.0583,0.599778 -6.36257,0 -6.36257,0 0.0792,-0.536643 z"
       id="path3276"
       inkscape:connector-curvature="0"
       transform="translate(21.218275,23.526894)" />
    <path
       style="fill:#ffe680;fill-opacity:1;stroke:#000000;stroke-width:2.02030516;stroke-opacity:1"
       d="M 7.3430726,45.332839 C 3.348501,42.534932 2.852932,40.42929 2.852932,26.2545 c 0,-23.354669 -3.41682229,-22.2233562 67.119598,-22.2233562 69.19867,0 66.22054,-0.9994505 66.22054,22.2233562 0,23.222807 2.97813,22.223356 -66.22054,22.223356 -49.350825,0 -58.818058,-0.475408 -62.6294574,-3.145017 z M 37.198119,33.325568 c 0,-6.195603 0.625332,-7.071068 5.050762,-7.071068 2.77792,0 5.050763,-0.909138 5.050763,-2.020305 0,-1.111168 -2.272843,-2.020305 -5.050763,-2.020305 -3.703892,0 -5.050762,-1.077496 -5.050762,-4.040611 0,-3.142696 1.34687,-4.04061 6.060915,-4.04061 3.333503,0 6.060915,-0.909137 6.060915,-2.020305 0,-1.111168 -4.091118,-2.020305 -9.091373,-2.020305 l -9.091373,0 0,15.152288 c 0,12.121831 0.606092,15.152288 3.030458,15.152288 2.11651,0 3.030458,-2.132545 3.030458,-7.071067 z m 31.92082,4.646701 c 4.029577,-4.029577 3.030819,-17.311957 -1.483427,-19.727908 -5.481147,-2.933421 -9.429734,-2.60738 -13.120492,1.083379 -3.748031,3.74803 -4.208404,15.186525 -0.7504,18.644529 3.125247,3.125247 12.229073,3.125247 15.354319,0 z m 12.525892,-3.471314 c 0,-8.524239 1.922306,-12.287065 6.277065,-12.287065 2.103453,0 3.82446,-1.312086 3.82446,-2.915746 0,-2.107206 -2.100873,-2.783519 -7.576144,-2.438913 l -7.576144,0.476832 -0.605898,11.530285 c -0.490164,9.327892 -0.0078,11.530287 2.525382,11.530287 2.112827,0 3.131279,-1.917576 3.131279,-5.89568 z m 16.16244,1.502903 0,-4.392778 4.675899,4.392778 c 2.57174,2.416028 6.37838,4.392777 8.4592,4.392777 3.23236,0 2.91919,-0.906749 -2.15052,-6.226582 l -5.93382,-6.22658 5.55584,-4.455912 c 9.66256,-7.749596 5.55442,-10.485883 -4.73889,-3.156405 l -5.867709,4.17818 0,-8.218791 c 0,-4.520335 -0.909137,-8.218791 -2.020305,-8.218791 -1.17851,0 -2.020305,6.73435 -2.020305,16.162441 0,9.428091 0.841795,16.16244 2.020305,16.16244 1.111168,0 2.020305,-1.976749 2.020305,-4.392777 l 0,0 z"
       id="path3278"
       inkscape:connector-curvature="0"
       transform="translate(21.218275,23.526894)" />
    <path
       style="fill:#ffe680;fill-opacity:1;stroke:#000000;stroke-width:0.71428573;stroke-opacity:1"
       d="m 180.93975,48.212468 c -4.63818,-1.263108 -8.32419,-4.364637 -10.73365,-9.03163 -1.97401,-3.823565 -2.00555,-4.07684 -1.77406,-14.249897 0.26173,-11.502226 0.71332,-12.989778 5.29383,-17.4383146 5.09575,-4.9489317 2.68492,-4.7683148 60.68927,-4.5467712 l 52.1993,0.1993717 3.4961,2.1617396 c 2.16303,1.3374587 4.32038,3.4935352 5.65784,5.6544755 2.09556,3.385813 2.16892,3.798526 2.39619,13.481783 0.18995,8.093826 0.004,10.592687 -0.98062,13.170618 -1.62827,4.26356 -4.98763,7.948031 -8.89668,9.757665 -3.15122,1.458807 -4.2024,1.490791 -53.57143,1.63002 -39.52202,0.111458 -51.09278,-0.05832 -53.77609,-0.78906 l 0,0 z m 20.5618,-9.032347 c 1.62144,-0.790591 2.19732,-1.608493 2.36669,-3.361291 0.26532,-2.745874 0.0148,-2.801179 -3.32863,-0.734827 -1.76234,1.089182 -3.67896,1.579121 -6.15574,1.573568 -6.91013,-0.01549 -10.01672,-4.123033 -9.53716,-12.610045 0.26501,-4.690121 0.4416,-5.13798 2.92225,-7.41132 3.61761,-3.315296 8.09324,-3.500289 13.19688,-0.54547 l 3.03571,1.757568 0,-2.511767 c 0,-3.580245 -2.86576,-5.015437 -10.05233,-5.034274 -6.81344,-0.01786 -9.79431,1.720757 -12.55966,7.325521 -1.63876,3.321405 -1.81877,4.398938 -1.51794,9.086464 0.61851,9.637845 5.55612,14.209333 14.84422,13.74354 2.55357,-0.128061 5.60714,-0.703011 6.78571,-1.277667 z m 33.00104,0.06545 c 3.21665,-1.961308 4.49896,-4.863743 4.49896,-10.18316 0,-5.510126 -1.63778,-8.985166 -5.06057,-10.737503 -4.4991,-2.303361 -10.78129,-1.043567 -13.19939,2.646931 -3.83876,5.858681 -2.03812,16.011826 3.32882,18.770001 2.62115,1.347064 7.81417,1.100028 10.43218,-0.496267 l 0,-2e-6 z m 51.64182,0.764671 c 1.3417,-0.370105 1.84006,-1.045312 2.00429,-2.715526 l 0.21857,-2.222941 -2.71857,0.96966 c -4.63883,1.654573 -7.89829,1.319681 -10.27352,-1.055549 -1.14836,-1.148351 -2.08791,-2.755494 -2.08791,-3.571428 0,-1.416483 0.374,-1.483517 8.27707,-1.483517 l 8.27707,0 -0.49178,-3.035714 c -0.97907,-6.04383 -3.5932,-8.911897 -8.75371,-9.604067 -3.73948,-0.501568 -8.61184,1.739754 -10.41395,4.790493 -0.70862,1.199582 -1.44775,3.858195 -1.64251,5.90803 -0.46082,4.849927 1.80293,9.576479 5.46209,11.404434 2.54637,1.27205 8.64349,1.581416 12.14286,0.616125 l 0,0 z m -72.85714,-15.436444 0,-15.3571426 -2.14286,0 -2.14286,0 0,15.3571426 0,15.357143 2.14286,0 2.14286,0 0,-15.357143 z m 35.71428,7.953471 c 0,-6.408528 0.19899,-7.656642 1.48042,-9.285714 1.73784,-2.20931 5.17676,-2.542987 7.21334,-0.699908 1.11924,1.012901 1.30624,2.342234 1.30624,9.285714 l 0,8.10358 2.14286,0 2.14286,0 0,-8.537819 c 0,-4.863242 -0.35002,-9.30602 -0.81326,-10.32272 -1.74421,-3.828129 -8.87338,-5.080159 -12.13248,-2.130715 -1.23456,1.117268 -1.33998,1.119669 -1.33998,0.03053 0,-0.837292 -0.62509,-1.182134 -2.14286,-1.182134 l -2.14285,0 0,11.071429 0,11.071428 2.14285,0 2.14286,0 0,-7.403672 z"
       id="path3280"
       inkscape:connector-curvature="0"
       transform="translate(21.218275,23.526894)" />
    <path
       style="fill:#ffe680;fill-opacity:1;stroke:#000000;stroke-width:0.71428573;stroke-opacity:1"
       d="m 341.69015,49.219718 c -5.52578,-1.663838 -9.89464,-6.399165 -11.20595,-12.14592 -1.16234,-5.093924 -0.94326,-18.433588 0.37619,-22.90607 1.37291,-4.6536797 5.94408,-9.4722584 10.07384,-10.6190739 1.80531,-0.501325 23.57759,-0.7486955 65.21018,-0.7408995 58.92532,0.011034 62.66341,0.086128 65.35714,1.3129451 3.67414,1.6733314 7.90889,6.3802363 8.87706,9.8668283 1.01179,3.643691 0.97653,21.145747 -0.0495,24.570353 -1.1817,3.944168 -4.62557,7.739443 -8.77694,9.672511 l -3.62204,1.686593 -62.14286,-0.05441 c -34.17858,-0.02993 -63.02228,-0.319215 -64.09712,-0.642853 z m 51.08894,-8.497492 c 2.09422,-1.067693 2.65103,-1.142706 2.65103,-0.357143 0,0.628731 0.78803,0.99443 2.14286,0.99443 l 2.14286,0 -0.001,-8.035715 c -0.002,-12.019415 -1.93148,-14.864285 -9.99885,-14.739698 -5.93075,0.09159 -7.45999,0.700566 -7.73549,3.080424 -0.21253,1.835846 -0.0732,1.984663 1.42857,1.525954 0.91523,-0.279553 3.11049,-0.676783 4.87835,-0.882733 2.58518,-0.301165 3.59873,-0.07096 5.17857,1.176215 3.30256,2.607147 2.57421,3.402895 -3.39038,3.704094 -4.70216,0.237448 -5.59433,0.510064 -7.32143,2.237162 -1.5464,1.546394 -1.96676,2.634277 -1.96676,5.089825 0,6.312914 5.84755,9.339713 11.99182,6.207185 z m 52.8296,0.599729 c 2.31606,-0.643202 2.67858,-1.026951 2.67858,-2.83548 0,-1.950057 -0.124,-2.044462 -1.83222,-1.394997 -3.37122,1.281736 -7.77147,0.853395 -9.43613,-0.918558 -3.45955,-3.68252 -2.3852,-11.848621 1.76951,-13.450117 1.96761,-0.758445 5.79834,-0.559469 8.24884,0.428463 1.02802,0.414454 1.25,0.115594 1.25,-1.682966 0,-1.940384 -0.28635,-2.24063 -2.54013,-2.663443 -9.35032,-1.754131 -15.31702,2.737696 -15.31702,11.530907 0,8.653151 6.53847,13.385668 15.17857,10.986191 l 0,0 z m -90.43566,-1.336622 c 2.27745,-1.034148 3.15569,-1.94427 3.82076,-3.959442 1.16394,-3.526766 0.38048,-7.106196 -1.984,-9.064386 l -1.93926,-1.606036 1.60837,-1.608368 c 1.94861,-1.948615 2.16815,-6.270519 0.44358,-8.732679 -1.85011,-2.64141 -5.28409,-3.654909 -12.3837,-3.654909 l -6.45151,0 0,15 0,15 6.96428,-0.01569 c 5.26563,-0.01186 7.68557,-0.34321 9.92148,-1.358493 l 0,-10e-7 z m 14.54281,-5.735068 c 0,-3.910087 0.36312,-7.906219 0.80694,-8.880294 0.99606,-2.186123 4.05848,-3.536441 6.58324,-2.902766 1.74668,0.438388 1.89553,0.301394 1.89553,-1.744544 0,-2.067202 -0.17482,-2.220291 -2.53547,-2.220291 -1.39451,0 -3.4838,0.490397 -4.64286,1.089771 -1.88899,0.976839 -2.10738,0.976839 -2.10738,0 0,-0.734666 -0.69826,-1.089771 -2.14286,-1.089771 l -2.14286,0 0,11.428571 0,11.428572 2.14286,0 2.14286,0 0,-7.109248 z m 40.82965,-0.811195 c 0.23382,-7.65965 0.30776,-7.977157 2.24589,-9.642857 2.62244,-2.25382 5.01796,-2.19818 6.87261,0.159627 1.29138,1.641725 1.48042,2.873018 1.48042,9.642858 l 0,7.760815 2.14286,0 2.14285,0 0,-8.237228 c 0,-12.0258 -1.43209,-14.619915 -8.071,-14.619915 -2.12029,0 -3.7861,0.488631 -5.04695,1.480414 l -1.88205,1.480414 0,-1.480414 c 0,-1.168714 -0.45118,-1.480414 -2.14285,-1.480414 l -2.14286,0 0,11.428571 0,11.428572 2.07966,0 2.07966,0 0.24176,-7.920443 z m 47.74178,0.03083 c 0,-7.424242 0.10341,-7.993025 1.75325,-9.642857 2.12357,-2.123577 4.88765,-2.2552 6.81817,-0.324675 1.26295,1.26294 1.42858,2.380952 1.42858,9.642857 l 0,8.214286 2.1982,0 2.1982,0 -0.23392,-9.706431 c -0.23198,-9.625971 -0.25053,-9.720705 -2.23803,-11.428572 -2.39526,-2.058253 -7.81298,-2.37807 -10.33695,-0.610209 l -1.5875,1.111932 0,-5.397646 0,-5.3976459 -2.14286,0 -2.14286,0 0,15.7142859 0,15.714286 2.14286,0 2.14286,0 0,-7.889611 0,0 z"
       id="path3282"
       inkscape:connector-curvature="0"
       transform="translate(21.218275,23.526894)" />
    <path
       style="fill:#ffe680;fill-opacity:1;stroke:#000000;stroke-width:0.71428573;stroke-opacity:1"
       d="m 511.71813,304.65685 c -6.74236,-1.83757 -11.56377,-6.52862 -13.36024,-12.999 -0.99612,-3.58774 -1.01538,-18.75291 -0.0288,-22.66061 1.21779,-4.82338 4.98148,-9.3364 9.73123,-11.66868 l 4.1555,-2.04048 62.14285,-0.21092 c 42.54585,-0.14441 63.5713,0.0347 66.67248,0.568 5.4287,0.93353 9.36535,3.26572 12.26191,7.26431 3.16876,4.37433 3.72227,7.45409 3.43589,19.11703 -0.2889,11.76482 -1.10178,14.2734 -6.02625,18.59714 -5.65281,4.96324 -0.97042,4.64938 -71.70117,4.80599 -50.07968,0.11089 -64.65533,-0.0565 -67.28342,-0.77278 z m 95.80408,-3.11988 c 4.86279,-2.4796 5.27901,-3.75901 5.6316,-17.31075 l 0.31617,-12.15242 -2.23421,0 c -1.60278,0 -2.23422,0.3341 -2.23422,1.18213 0,1.079 -0.1198,1.07372 -1.37313,-0.0605 -0.75523,-0.68347 -2.67773,-1.41765 -4.27223,-1.63152 -6.5008,-0.87194 -10.44265,3.38149 -10.402,11.2242 0.0281,5.43481 1.49782,8.74323 4.59541,10.34506 3.06222,1.58354 7.31216,1.37905 9.65599,-0.46461 l 1.96812,-1.54812 -0.44322,1.54812 c -0.24377,0.85147 -0.62672,2.19451 -0.85099,2.98453 -0.4447,1.56654 -3.75833,3.5822 -5.80676,3.53224 -0.70701,-0.0172 -2.50883,-0.46769 -4.00405,-1.00101 l -2.71857,-0.96966 0.21857,2.22294 c 0.16423,1.67022 0.66259,2.34542 2.00429,2.71553 3.28086,0.90502 7.47551,0.64526 9.94923,-0.61613 l 0,0 z m -37.6278,-7.35787 c 2.3496,-0.65252 2.67857,-1.01232 2.67857,-2.92958 0,-1.72618 -0.24459,-2.09185 -1.16339,-1.73927 -6.59983,2.53259 -11.6149,1.88352 -13.49189,-1.74619 -0.58245,-1.12634 -1.05901,-2.38528 -1.05901,-2.79765 0,-0.48002 2.95521,-0.74975 8.21429,-0.74975 l 8.21429,0 0,-2.52295 c 0,-6.16384 -4.03241,-10.32886 -10,-10.32886 -3.86829,0 -7.30473,1.91129 -9.28958,5.16671 -2.07138,3.39733 -1.97169,10.22649 0.19667,13.47232 2.96036,4.43139 8.99699,6.03675 15.70005,4.17522 z m 65.71428,0 c 2.3496,-0.65252 2.67858,-1.01232 2.67858,-2.92958 0,-1.80011 -0.22053,-2.09555 -1.25,-1.67468 -7.20347,2.94494 -12.46813,1.54171 -14.07318,-3.75104 -0.48586,-1.60213 -0.46161,-1.60714 7.77504,-1.60714 l 8.26242,0 0,-2.52295 c 0,-6.59862 -4.17847,-10.60657 -10.56533,-10.13417 -6.94058,0.51336 -10.40443,4.84363 -9.97563,12.47085 0.28774,5.11821 1.79023,7.71101 5.59173,9.64944 2.75393,1.40426 7.55134,1.61152 11.55637,0.49927 z m -111.44626,-11.45544 0.19626,-11.493 3.20476,8.66889 3.20475,8.6689 2.4934,-0.21161 2.4934,-0.21161 3.37438,-8.92857 3.37439,-8.92858 0.0346,11.96429 0.0346,11.96429 2.14286,0 2.14285,0 0,-15 0,-15 -3.16296,0 c -3.16028,0 -3.16416,0.003 -4.57389,3.75 -4.45142,11.83106 -5.23783,13.79611 -5.71032,14.2686 -0.28613,0.28612 -2.07586,-3.65101 -3.97718,-8.74919 l -3.45695,-9.26941 -3.13078,0 -3.13077,0 0,15 0,15 2.12516,0 2.12516,0 0.19627,-11.493 0,0 z m 58.52592,3.65391 c 0.21557,-6.98926 0.41528,-8.0124 1.84223,-9.43776 1.18171,-1.1804 2.34976,-1.5688 4.46429,-1.48448 2.74652,0.10953 2.86382,0.0242 2.86382,-2.0837 0,-2.18532 -0.0186,-2.19581 -3.24327,-1.83234 -1.7838,0.20106 -3.87308,0.93553 -4.64285,1.63217 -1.2683,1.1478 -1.39959,1.15572 -1.39959,0.0845 0,-0.83729 -0.62509,-1.18213 -2.14286,-1.18213 l -2.14285,0 0,11.07143 0,11.07143 2.07965,0 2.07967,0 0.24176,-7.83909 z"
       id="path3284"
       inkscape:connector-curvature="0"
       transform="translate(21.218275,23.526894)" />
    <path
       style="fill:#ffe680;fill-opacity:1;stroke:#000000;stroke-width:0.71428573;stroke-opacity:1"
       d="m 298.27828,359.67701 c -6.54958,-1.41136 -11.18767,-5.01277 -14.3913,-11.17464 l -1.67114,-3.21429 0,-37.85714 0,-37.85714 1.63669,-3.06519 c 2.37936,-4.45604 6.83846,-8.44824 11.30135,-10.11802 3.82331,-1.43048 5.19181,-1.45965 68.49053,-1.45965 63.29872,0 64.66722,0.0292 68.49053,1.45965 4.86197,1.8191 9.32246,6.06261 11.59865,11.03445 l 1.73397,3.78749 -0.19729,37.03778 -0.19729,37.03777 -1.67114,3.21429 c -3.32601,6.39725 -8.32744,10.08516 -15.42433,11.37346 -6.20467,1.12635 -124.39038,0.94517 -129.69923,-0.19882 l 0,0 z m 35.18756,-11.2122 c 2.32259,-0.64501 2.67857,-1.0242 2.67857,-2.85315 0,-1.16011 -0.10346,-2.10929 -0.2299,-2.10929 -0.12645,0 -1.74411,0.51594 -3.5948,1.14654 -4.40862,1.50216 -7.69822,0.86787 -10.06082,-1.93992 -3.2675,-3.88321 -2.77657,-4.20662 6.38552,-4.20662 l 8.21428,0 0,-2.52294 c 0,-6.59862 -4.17847,-10.60657 -10.56533,-10.13417 -6.94057,0.51335 -10.40443,4.84363 -9.97563,12.47085 0.28774,5.11821 1.79024,7.711 5.59174,9.64944 2.75392,1.40426 7.55133,1.61151 11.55637,0.49926 z m 59.28571,0 c 2.3496,-0.65252 2.67857,-1.01231 2.67857,-2.92958 0,-1.80011 -0.22052,-2.09555 -1.25,-1.67467 -7.20346,2.94494 -12.46813,1.5417 -14.07318,-3.75105 -0.48585,-1.60213 -0.4616,-1.60714 7.77505,-1.60714 l 8.26242,0 0,-2.52294 c 0,-6.59862 -4.17847,-10.60657 -10.56534,-10.13417 -6.94057,0.51335 -10.40443,4.84363 -9.97563,12.47085 0.28775,5.11821 1.79024,7.711 5.59174,9.64944 2.75393,1.40426 7.55134,1.61151 11.55637,0.49926 z m -96.60714,-6.03387 0,-6.07143 3.05535,0 c 4.14247,0 5.45697,1.11349 8.33264,7.05844 2.31322,4.78216 2.59984,5.08442 4.82143,5.08442 1.41845,0 2.35823,-0.35667 2.35256,-0.89286 -0.0131,-1.2359 -5.38148,-10.80671 -6.65404,-11.86285 -0.88582,-0.73515 -0.73523,-1.16425 1.02702,-2.9265 3.56511,-3.56511 2.44331,-10.79571 -1.98854,-12.81722 -1.10982,-0.50622 -4.99106,-1.09817 -8.62499,-1.31543 l -6.60715,-0.39503 0,15.10495 0,15.10494 2.14286,0 2.14286,0 0,-6.07143 z m 61.15163,-4.28571 c 2.07966,-5.5 3.79632,-10.40179 3.81479,-10.89286 0.0194,-0.51759 -0.84077,-0.89286 -2.04675,-0.89286 -1.93779,0 -2.22438,0.3793 -4.18262,5.53572 -1.15626,3.04464 -2.5048,6.77066 -2.99677,8.28004 -0.49196,1.50939 -1.15796,2.47367 -1.48,2.14286 -0.32204,-0.33081 -1.84354,-3.97647 -3.38111,-8.10147 -2.68373,-7.19994 -2.88584,-7.50896 -5.05166,-7.72383 -1.24085,-0.12311 -2.25608,-0.051 -2.25608,0.16028 0,0.21125 1.81293,5.23004 4.02873,11.15285 l 4.02874,10.76876 2.87076,-0.21474 2.87076,-0.21475 3.78121,-10 0,0 z m 13.13408,-0.71429 0,-11.07143 -2.14285,0 -2.14286,0 0,11.07143 0,11.07143 2.14286,0 2.14285,0 0,-11.07143 z m 41.84206,2.74503 2.16191,-8.3264 2.12723,8.14783 2.12724,8.14783 2.65649,0.22169 c 1.46108,0.12193 2.6577,-0.0388 2.65917,-0.35714 0.001,-0.31837 1.25284,-5.31991 2.78084,-11.11455 l 2.77818,-10.53572 -2.28311,0 -2.28311,0 -1.63562,6.78463 c -0.89959,3.73155 -1.89113,6.94254 -2.20341,7.13555 -0.31229,0.193 -1.34198,-2.77972 -2.28822,-6.60606 l -1.72043,-6.95697 -2.6068,-0.2194 c -2.91122,-0.24501 -2.47672,-1.08192 -5.25354,10.11894 -0.73097,2.9485 -1.41791,4.5129 -1.72506,3.92857 -0.28073,-0.53404 -1.23308,-3.94419 -2.11634,-7.57811 -1.56468,-6.43749 -1.65889,-6.60715 -3.66884,-6.60715 -1.13461,0 -2.072,0.24107 -2.0831,0.53572 -0.0111,0.29464 1.19426,5.27638 2.67857,11.07053 l 2.69875,10.53481 2.51864,7.1e-4 2.51865,7.2e-4 2.16191,-8.3264 0,3.7e-4 z m -41.84206,-19.88789 c 0,-2.30158 -0.17007,-2.5 -2.14285,-2.5 -1.97279,0 -2.14286,0.19842 -2.14286,2.5 0,2.30159 0.17007,2.5 2.14286,2.5 1.97278,0 2.14285,-0.19841 2.14285,-2.5 z m -58.92857,-22.54172 c 1.73104,-0.84001 2.18556,-1.55519 2.36503,-3.72141 l 0.22217,-2.68156 -2.64328,1.79378 c -2.06521,1.40149 -3.54221,1.79377 -6.75377,1.79377 -3.52293,0 -4.41872,-0.28792 -6.26672,-2.01421 -4.98088,-4.65284 -4.65644,-14.95096 0.59332,-18.83305 3.74,-2.76566 6.90951,-2.4572 14.44754,1.40604 0.29464,0.15101 0.53571,-0.84233 0.53571,-2.20741 0,-2.23099 -0.29038,-2.59816 -2.8716,-3.63095 -3.28146,-1.31299 -9.65256,-1.50954 -12.61761,-0.38926 -5.34601,2.01986 -8.24035,7.16015 -8.24466,14.64238 -0.006,10.13658 5.35412,15.60602 14.8053,15.1077 2.35714,-0.12429 5.25,-0.6939 6.42857,-1.26582 z m 21.76142,0.21919 c 3.60587,-1.81902 5.11358,-4.89944 5.11358,-10.44761 0,-7.77013 -3.48335,-11.86737 -10.08928,-11.86737 -6.60594,0 -10.08929,4.09724 -10.08929,11.86737 0,7.39957 3.70649,11.6965 10.08929,11.6965 1.375,0 3.61406,-0.562 4.9757,-1.24889 z m 22.85633,0.0454 c 1.22077,-0.85506 1.80358,-0.95892 2.00417,-0.35714 0.15557,0.46668 1.22035,0.84852 2.36617,0.84852 l 2.08334,0 0,-15.35714 0,-15.35715 -2.14286,0 -2.14285,0 0,5.01835 0,5.01834 -2.10739,-1.08977 c -4.61989,-2.38904 -10.20725,-0.53811 -12.41407,4.11242 -1.54599,3.25794 -1.54599,9.9091 0,13.16704 2.21308,4.66371 8.49805,6.69699 12.35349,3.99653 l 0,0 z m 28.77511,0.45382 c 2.3496,-0.65251 2.67857,-1.01231 2.67857,-2.92958 0,-1.80011 -0.22052,-2.09555 -1.25,-1.67467 -3.29425,1.34676 -6.30326,1.86666 -8.46093,1.46188 -2.55197,-0.47875 -5.28907,-3.31871 -5.28907,-5.48783 0,-1.22331 0.67522,-1.33224 8.25805,-1.33224 l 8.25806,0 -0.49222,-3.39286 c -0.27071,-1.86607 -0.74303,-3.875 -1.0496,-4.46428 -3.31839,-6.37859 -13.60989,-6.68191 -17.6868,-0.52129 -2.45808,3.71442 -2.69861,10.2632 -0.51113,13.91634 2.6161,4.36892 9.10001,6.21441 15.54507,4.42453 l 0,0 z"
       id="path3286"
       inkscape:connector-curvature="0"
       transform="translate(21.218275,23.526894)" />
    <path
       style="fill:#ffe680;fill-opacity:1;stroke:#000000;stroke-width:0.71428573;stroke-opacity:1"
       d="m 54.474568,360.96773 c -3.936265,-1.44371 -8.343383,-4.89017 -10.655525,-8.33287 -4.090052,-6.08994 -4.173993,-7.06004 -3.950383,-45.65385 l 0.20432,-35.26435 1.683968,-3.72412 c 2.097383,-4.63839 7.241964,-9.53553 11.907579,-11.33487 3.416108,-1.31744 6.297848,-1.36959 75.694163,-1.36959 l 72.14286,0 3.50987,1.78572 c 5.0645,2.57667 9.33597,7.14672 11.10898,11.8855 1.46464,3.91462 1.49621,4.90865 1.29829,40.88476 l -0.20285,36.8726 -2.12011,3.82771 c -2.64096,4.7681 -6.62191,8.2326 -11.60001,10.09514 -3.7479,1.40227 -5.42326,1.43317 -75.05668,1.38396 -59.36413,-0.0419 -71.67964,-0.21774 -73.964472,-1.05574 z m 65.241272,-24.60822 0,-15.71428 -2.14286,0 c -1.46326,0 -2.14286,0.35264 -2.14286,1.11193 0,1.00638 -0.15068,1.00638 -1.5875,0 -2.0873,-1.46201 -7.6388,-1.43121 -9.75943,0.0541 -3.75805,2.63224 -5.538076,11.13224 -3.38798,16.1783 2.19311,5.14701 7.4661,7.46352 11.92528,5.23898 1.27315,-0.63512 2.42616,-1.15478 2.56223,-1.15478 0.13607,0 0.2474,2.25 0.2474,5 l 0,5 2.14286,0 2.14286,0 0,-15.71429 0,0 z m -25.681364,6.41095 c 0.805163,-0.4309 1.395647,-1.49181 1.395647,-2.5075 0,-1.96813 -0.447144,-2.10057 -3.346358,-0.99112 -2.73659,1.04721 -7.592726,0.97689 -9.374333,-0.13573 -1.399154,-0.87379 -2.993595,-3.51188 -2.993595,-4.95306 0,-0.39192 3.48468,-0.68068 8.214286,-0.68068 l 8.214285,0 -0.01569,-2.32143 c -0.02386,-3.53043 -2.417143,-8.13675 -4.892711,-9.41691 -2.727003,-1.41019 -8.108002,-1.4425 -10.7724,-0.0647 -3.27258,1.69232 -5.104512,5.35931 -5.127974,10.2647 -0.02921,6.10707 2.372294,10.0834 6.982022,11.56059 2.422075,0.77616 9.737162,0.30531 11.716818,-0.75417 l -2e-6,0 z m 44.458904,0.0946 c 2.09421,-1.06769 2.65103,-1.1427 2.65103,-0.35714 0,0.62873 0.78803,0.99443 2.14286,0.99443 l 2.14285,0 0,-11.42857 0,-11.42857 -2.14285,0 -2.14286,0 0,6.80865 c 0,10.11774 -1.768,13.13927 -7.2309,12.35769 -2.6541,-0.37972 -3.46129,-3.04978 -3.47286,-11.48777 l -0.0105,-7.67857 -2.14285,0 -2.14286,0 0,8.1077 c 0,9.41145 0.76653,12.22358 3.84332,14.09973 2.81887,1.71889 5.15184,1.7223 8.50565,0.0124 l 0,-1e-5 z m 28.33016,0.5781 c 3.367,-0.7221 3.60658,-0.91696 3.60658,-2.93356 0,-1.76554 -0.22832,-2.07163 -1.25,-1.67578 -6.0612,2.34841 -11.2934,1.36862 -13.21319,-2.47433 l -1.24891,-2.5 8.2132,-0.20124 8.21319,-0.20124 0,-2.9051 c 0,-6.24656 -3.60639,-9.90877 -9.75307,-9.90403 -6.1776,0.005 -9.9643,3.4712 -10.71487,9.80865 -0.91929,7.76194 3.59074,13.39334 10.9685,13.69568 0.86459,0.0354 3.19495,-0.28364 5.17857,-0.70905 l 0,0 z m 20.18123,0.0306 c 3.15087,-0.8751 5.56821,-3.67808 5.56821,-6.45648 0,-3.09612 -2.6337,-5.41181 -7.85476,-6.90635 -4.85231,-1.38898 -6.00926,-2.749 -4.19657,-4.93316 0.69244,-0.83433 1.82519,-1.02797 4.52327,-0.77321 1.97972,0.18692 4.16199,0.57693 4.84949,0.86667 1.02925,0.43378 1.25,0.1496 1.25,-1.60916 0,-2.49291 -1.16192,-2.99208 -6.99976,-3.00712 -4.05323,-0.0104 -7.54992,1.35788 -8.27083,3.23654 -0.89475,2.33171 -0.43593,6.04719 0.91342,7.39654 0.74641,0.74641 3.23748,1.89326 5.53571,2.54856 4.66937,1.33139 6.27149,2.75714 5.24772,4.67007 -0.9644,1.802 -4.44101,2.23895 -8.35799,1.05047 -4.52388,-1.37259 -4.49684,-1.37888 -4.49684,1.04606 0,1.88873 0.30648,2.16946 3.03571,2.78065 4.15691,0.93091 6.15532,0.95034 9.25322,0.0899 l 0,-2e-5 z m -131.574647,-6.04282 0,-6.07143 3.248392,0 c 3.924589,0 5.448638,1.39487 8.5004,7.7799 1.933214,4.04475 2.258064,4.36296 4.453971,4.36296 1.302766,0 2.368665,-0.16874 2.368665,-0.37497 0,-0.95834 -5.309266,-10.86644 -6.543978,-12.21231 -1.231288,-1.34213 -1.259736,-1.5661 -0.248232,-1.95425 1.294862,-0.49688 3.220782,-4.64361 3.220782,-6.93472 0,-0.83718 -0.506908,-2.59036 -1.126462,-3.89598 -1.572012,-3.31277 -5.213897,-4.62777 -12.816564,-4.62777 l -6.056975,0 0,15 0,15 2.500001,0 2.5,0 0,-6.07143 z m 153.571427,4.28572 c 0,-1.59148 -0.29523,-1.78572 -2.71428,-1.78572 -1.49286,0 -3.1,-0.38571 -3.57143,-0.85714 -0.55005,-0.55005 -0.85715,-3.36508 -0.85715,-7.85714 l 0,-7 3.57143,0 c 3.33334,0 3.57143,-0.11905 3.57143,-1.78572 0,-1.66666 -0.23809,-1.78571 -3.57143,-1.78571 l -3.57143,0 0,-2.85715 c 0,-2.69841 -0.11905,-2.85714 -2.14285,-2.85714 -2.02381,0 -2.14286,0.15873 -2.14286,2.85714 0,2.38096 -0.23809,2.85715 -1.42857,2.85715 -1.04762,0 -1.42857,0.47619 -1.42857,1.78571 0,1.30953 0.38095,1.78572 1.42857,1.78572 1.33843,0 1.42857,0.47619 1.42857,7.54695 0,4.15083 0.34244,8.18682 0.76098,8.96887 1.00208,1.8724 3.1298,2.6693 7.27473,2.72461 3.15493,0.0421 3.39286,-0.0799 3.39286,-1.74043 z M 86.914134,292.38077 c 1.253329,-1.13425 1.373131,-1.13953 1.373131,-0.0605 0,0.83729 0.625097,1.18213 2.142858,1.18213 l 2.142857,0 0,-11.42857 0,-11.42857 -2.142857,0 -2.142858,0 0,7.76081 c 0,6.76984 -0.189033,8.00114 -1.480414,9.64286 -1.049685,1.33446 -2.140756,1.87886 -3.75,1.8711 -4.13532,-0.0199 -4.37894,-0.53783 -4.769586,-10.13946 l -0.357142,-8.77817 -1.964286,-0.22602 -1.964286,-0.22601 0,8.94241 c 0,10.03045 0.639886,12.28227 3.911258,13.76412 2.679727,1.21384 7.175472,0.77627 9.001325,-0.8761 l 0,0 z m -31.484011,-4.50039 0,-5.62199 5.10893,-0.50343 c 4.259166,-0.41968 5.438494,-0.83298 7.090328,-2.48482 3.807114,-3.80711 3.32766,-10.67268 -0.969366,-13.88088 -1.615592,-1.20621 -3.304418,-1.53389 -9.106654,-1.76694 l -7.123239,-0.2861 0,15.08307 0,15.08308 2.500001,0 2.5,0 0,-5.62199 z m 48.406787,-9.91372 -0.1925,-15.53572 -1.96429,-0.22601 -1.964283,-0.22602 0,15.76173 0,15.76173 2.156783,0 2.15679,0 -0.1925,-15.53571 z m 10.87893,-0.17858 0,-15.71428 -2.14286,0 -2.14286,0 0,15.71428 0,15.71429 2.14286,0 2.14286,0 0,-15.71429 z"
       id="path3288"
       inkscape:connector-curvature="0"
       transform="translate(21.218275,23.526894)" />
    <path
       style="fill:#ffe680;fill-opacity:1;stroke:#000000;stroke-width:0.17857143;stroke-opacity:1"
       d="m 59.666213,36.99279 c -1.115543,-0.35766 -2.552047,-1.682432 -3.18591,-2.938108 -1.383378,-2.740457 -1.42397,-7.353434 -0.08826,-10.030182 0.579311,-1.160932 1.706587,-2.374175 2.674126,-2.878057 0.997539,-0.519505 3.134594,-0.635534 4.338777,-0.235569 2.464449,0.818559 4.022671,3.466226 4.246828,7.216037 0.240166,4.017618 -1.062102,7.168179 -3.514692,8.503045 -1.160122,0.631417 -3.133618,0.791577 -4.470868,0.362834 l 0,0 z"
       id="path3290"
       inkscape:connector-curvature="0"
       transform="translate(21.218275,23.526894)" />
    <path
       style="fill:#ffe680;fill-opacity:1;stroke:#000000;stroke-width:0.17857143;stroke-opacity:1"
       d="m 227.24756,37.015832 c -1.0656,-0.348475 -1.9297,-0.924112 -2.52733,-1.683646 -1.29319,-1.643521 -1.81099,-3.46587 -1.81099,-6.373566 0,-4.04346 1.15854,-6.536574 3.60582,-7.759494 0.92986,-0.464657 1.289,-0.544077 2.46032,-0.544077 1.17413,0 1.52972,0.07905 2.47058,0.549199 2.42048,1.209528 3.59283,3.738332 3.59821,7.761497 0.005,3.920277 -1.34993,6.747252 -3.74736,7.817181 -1.00984,0.450674 -3.02832,0.566774 -4.04925,0.232906 z"
       id="path3292"
       inkscape:connector-curvature="0"
       transform="translate(21.218275,23.526894)" />
    <path
       style="fill:#ffe680;fill-opacity:1;stroke:#000000;stroke-width:0.17857143;stroke-opacity:1"
       d="m 272.83053,26.235406 c 0.41728,-2.303204 1.60366,-4.006385 3.4102,-4.895743 1.14882,-0.565562 1.30769,-0.595329 3.17733,-0.595329 1.87031,0 2.01681,0.02748 2.95018,0.553355 1.62205,0.913888 2.61303,2.533958 2.96571,4.848431 l 0.11565,0.758929 -6.3702,0 -6.3702,0 0.12133,-0.669643 z"
       id="path3294"
       inkscape:connector-curvature="0"
       transform="translate(21.218275,23.526894)" />
    <path
       style="fill:#ffe680;fill-opacity:1;stroke:#000000;stroke-width:0.17857143;stroke-opacity:1"
       d="m 342.64364,32.360281 0,-5.304558 4.33036,0.06017 c 4.09889,0.05695 4.38039,0.0827 5.26636,0.481726 1.94165,0.874479 2.82687,2.550122 2.68755,5.087271 -0.0936,1.704692 -0.47772,2.587125 -1.54641,3.552624 -1.16679,1.054119 -2.04784,1.230353 -6.67536,1.335246 l -4.0625,0.09208 0,-5.304558 z"
       id="path3296"
       inkscape:connector-curvature="0"
       transform="translate(21.218275,23.526894)" />
    <path
       style="fill:#ffe680;fill-opacity:1;stroke:#000000;stroke-width:0.17857143;stroke-opacity:1"
       d="m 342.64364,19.392978 0,-4.297786 4.0625,0.05671 c 4.05232,0.05657 4.0651,0.05799 5.09839,0.565374 1.50607,0.739536 1.98136,1.529009 2.0617,3.424596 0.0505,1.191454 -0.004,1.587874 -0.29512,2.156157 -0.99536,1.941398 -2.43961,2.39273 -7.65669,2.39273 l -3.27078,0 0,-4.297785 z"
       id="path3298"
       inkscape:connector-curvature="0"
       transform="translate(21.218275,23.526894)" />
    <path
       style="fill:#ffe680;fill-opacity:1;stroke:#000000;stroke-width:0.17857143;stroke-opacity:1"
       d="m 387.64248,38.177109 c -1.88518,-0.61698 -3.0303,-2.079185 -3.03356,-3.873578 -0.002,-0.92854 0.50141,-2.300379 1.02159,-2.785661 1.1778,-1.098774 2.47146,-1.392943 6.70063,-1.523675 l 3.34821,-0.1035 0,1.148231 c 0,2.987406 -1.44006,5.591055 -3.7054,6.699379 -0.7796,0.381422 -1.29359,0.494171 -2.43598,0.534357 -0.79635,0.02801 -1.64931,-0.01499 -1.89549,-0.09555 z"
       id="path3300"
       inkscape:connector-curvature="0"
       transform="translate(21.218275,23.526894)" />
    <path
       style="fill:#ffe680;fill-opacity:1;stroke:#000000;stroke-width:0.25253814;stroke-opacity:1"
       d="m 55.114665,272.74463 0,-5.32752 3.291107,0 c 4.362299,0 5.500728,0.45446 6.616914,2.6415 0.338993,0.66421 0.515227,1.51667 0.524842,2.53871 0.02025,2.15277 -0.751909,3.69165 -2.312765,4.60921 -1.099542,0.64638 -1.399123,0.69654 -4.647699,0.77826 l -3.472399,0.0874 0,-5.32752 z"
       id="path3302"
       inkscape:connector-curvature="0"
       transform="translate(21.218275,23.526894)" />
    <path
       style="fill:#ffe680;fill-opacity:1;stroke:#000000;stroke-width:0.25253814;stroke-opacity:1"
       d="m 55.114665,322.45179 0,-5.06939 3.598668,0.0818 c 4.275011,0.0971 5.138817,0.39812 6.16423,2.14785 0.516189,0.88081 0.6543,1.45148 0.6543,2.70351 0,3.87982 -2.050673,5.20043 -8.081221,5.2042 l -2.335977,10e-4 0,-5.0694 z"
       id="path3304"
       inkscape:connector-curvature="0"
       transform="translate(21.218275,23.526894)" />
    <path
       style="fill:#ffe680;fill-opacity:1;stroke:#000000;stroke-width:0.25253814;stroke-opacity:1"
       d="m 79.510246,329.35209 c 0.272545,-1.17168 1.106141,-2.92916 1.691317,-3.56581 0.99627,-1.08392 2.893953,-1.79542 4.795949,-1.79816 2.008574,-0.003 3.229184,0.5141 4.422427,1.87313 0.695966,0.79266 1.565294,2.93217 1.565294,3.85235 0,0.26673 -1.256947,0.33297 -6.318265,0.33297 l -6.318265,0 0.161543,-0.69448 z"
       id="path3306"
       inkscape:connector-curvature="0"
       transform="translate(21.218275,23.526894)" />
    <path
       style="fill:#ffe680;fill-opacity:1;stroke:#000000;stroke-width:0.25253814;stroke-opacity:1"
       d="m 108.32018,340.28822 c -1.58494,-0.42106 -3.03618,-1.836 -3.7594,-3.66537 -0.45192,-1.14311 -0.55563,-1.93087 -0.56658,-4.30344 -0.0156,-3.38413 0.39682,-4.91156 1.75452,-6.49773 1.10326,-1.28892 2.34386,-1.87509 3.99641,-1.88826 2.40141,-0.0191 4.01724,1.09667 5.19547,3.58777 0.60346,1.27587 0.65695,1.65832 0.65695,4.69741 0,3.28273 -0.007,3.32193 -0.88389,5.041 -0.69677,1.36577 -1.12445,1.87623 -2.0203,2.41131 -1.40975,0.84204 -2.79255,1.03723 -4.37318,0.61731 l 0,0 z"
       id="path3308"
       inkscape:connector-curvature="0"
       transform="translate(21.218275,23.526894)" />
    <path
       style="fill:#ffe680;fill-opacity:1;stroke:#000000;stroke-width:0.25253814;stroke-opacity:1"
       d="m 154.8697,329.47836 c 0.004,-0.99014 1.14336,-3.0597 2.21643,-4.02703 1.26179,-1.13745 2.66419,-1.54642 4.87454,-1.42152 1.29379,0.0731 1.90965,0.24996 2.70636,0.7772 1.25813,0.83259 2.26498,2.48003 2.4816,4.06045 l 0.16162,1.17911 -6.22151,0 -6.22151,0 0.002,-0.56821 0,0 z"
       id="path3310"
       inkscape:connector-curvature="0"
       transform="translate(21.218275,23.526894)" />
    <path
       style="fill:#ffe680;fill-opacity:1;stroke:#000000;stroke-width:0.25253814;stroke-opacity:1"
       d="m 295.98309,327.54487 0,-5.07445 2.98463,0 c 3.68417,0 5.23813,0.40316 6.32489,1.64091 2.02864,2.31049 1.48096,6.27532 -1.06866,7.73637 -0.93735,0.53714 -1.40966,0.60681 -4.64219,0.68479 l -3.59867,0.0868 0,-5.07444 z"
       id="path3312"
       inkscape:connector-curvature="0"
       transform="translate(21.218275,23.526894)" />
    <path
       style="fill:#ffe680;fill-opacity:1;stroke:#000000;stroke-width:0.25253814;stroke-opacity:1"
       d="m 325.87527,295.09287 c -2.36668,-1.10197 -3.62821,-3.78804 -3.62821,-7.72525 0,-4.72574 1.97726,-7.77345 5.34239,-8.2347 1.76671,-0.24215 3.20461,0.28219 4.53257,1.65285 1.39158,1.43632 1.97595,2.94795 2.17363,5.62266 0.25881,3.50187 -0.56219,6.16649 -2.41598,7.84128 -1.71571,1.55004 -3.84429,1.84895 -6.0044,0.84316 l 0,0 z"
       id="path3314"
       inkscape:connector-curvature="0"
       transform="translate(21.218275,23.526894)" />
    <path
       style="fill:#ffe680;fill-opacity:1;stroke:#000000;stroke-width:0.25253814;stroke-opacity:1"
       d="m 350.08903,295.05402 c -2.37445,-1.18324 -3.48023,-3.68022 -3.45984,-7.81267 0.0144,-2.91311 0.58428,-4.85676 1.82879,-6.23709 2.80678,-3.11311 7.08591,-2.46564 9.0421,1.36814 1.23988,2.42991 1.35193,6.9397 0.23863,9.60419 -1.34618,3.22188 -4.67359,4.56048 -7.64968,3.07743 z"
       id="path3316"
       inkscape:connector-curvature="0"
       transform="translate(21.218275,23.526894)" />
    <path
       style="fill:#ffe680;fill-opacity:1;stroke:#000000;stroke-width:0.25253814;stroke-opacity:1"
       d="m 372.28277,284.31473 c 0.71771,-3.19428 3.28056,-5.28087 6.48624,-5.28087 2.95461,0 5.35333,2.15272 5.76775,5.17623 l 0.15587,1.13723 -6.32093,0 -6.32094,0 0.23201,-1.03259 z"
       id="path3318"
       inkscape:connector-curvature="0"
       transform="translate(21.218275,23.526894)" />
    <path
       style="fill:#ffe680;fill-opacity:1;stroke:#000000;stroke-width:0.25253814;stroke-opacity:1"
       d="m 379.85891,334.31728 c 0.71771,-3.19428 3.28056,-5.28087 6.48624,-5.28087 2.95461,0 5.35333,2.15272 5.76775,5.17623 l 0.15588,1.13723 -6.32094,0 -6.32093,0 0.232,-1.03259 z"
       id="path3320"
       inkscape:connector-curvature="0"
       transform="translate(21.218275,23.526894)" />
    <path
       style="fill:#ffe680;fill-opacity:1;stroke:#000000;stroke-width:0.25253814;stroke-opacity:1"
       d="m 320.31991,334.90793 c 0.07,-0.24307 0.27433,-0.95255 0.45419,-1.57663 0.89058,-3.0902 4.76999,-4.99002 8.13592,-3.9843 1.49101,0.4455 3.05828,2.10305 3.54811,3.75249 0.72783,2.45087 1.25658,2.25038 -5.93494,2.25038 -5.90911,0 -6.322,-0.0294 -6.20328,-0.44194 z"
       id="path3322"
       inkscape:connector-curvature="0"
       transform="translate(21.218275,23.526894)" />
    <path
       style="fill:#ffe680;fill-opacity:1;stroke:#000000;stroke-width:0.25253814;stroke-opacity:1"
       d="m 556.66003,280.84747 c 0,-0.88996 0.93824,-3.02223 1.70166,-3.86725 1.4058,-1.55605 2.62633,-2.08148 4.86433,-2.09404 2.29168,-0.0129 3.6655,0.60377 4.78343,2.14703 0.61256,0.84561 1.27749,2.81354 1.27749,3.78085 0,0.14538 -2.49074,0.24011 -6.31345,0.24011 -3.4724,0 -6.31346,-0.093 -6.31346,-0.2067 z"
       id="path3324"
       inkscape:connector-curvature="0"
       transform="translate(21.218275,23.526894)" />
    <path
       style="fill:#ffe680;fill-opacity:1;stroke:#000000;stroke-width:0.25253814;stroke-opacity:1"
       d="m 600.98047,290.53853 c -2.50535,-0.92414 -3.98066,-3.72577 -3.99697,-7.59033 -0.0168,-3.97893 1.13035,-6.51521 3.43132,-7.58648 2.33302,-1.08618 4.64113,-0.7257 6.36017,0.99334 3.30108,3.30108 2.65496,11.69308 -1.05792,13.74067 -1.35534,0.74745 -3.394,0.93803 -4.7366,0.4428 z"
       id="path3326"
       inkscape:connector-curvature="0"
       transform="translate(21.218275,23.526894)" />
    <path
       style="fill:#ffe680;fill-opacity:1;stroke:#000000;stroke-width:0.25253814;stroke-opacity:1"
       d="m 622.57249,280.59408 c 0,-1.10444 0.89518,-2.97377 1.91011,-3.98869 1.6284,-1.62841 4.15631,-2.24033 6.54991,-1.58551 1.95275,0.53421 3.91434,3.22483 3.91434,5.36911 l 0,0.66518 -6.18718,0 c -5.81717,0 -6.18718,-0.0275 -6.18718,-0.46009 z"
       id="path3328"
       inkscape:connector-curvature="0"
       transform="translate(21.218275,23.526894)" />
  </g>
</svg>
